<?xml version="1.0" encoding="UTF-8" standalone="no"?>
<!-- Created with Inkscape (http://www.inkscape.org/) -->

<svg
   xmlns:dc="http://purl.org/dc/elements/1.1/"
   xmlns:cc="http://creativecommons.org/ns#"
   xmlns:rdf="http://www.w3.org/1999/02/22-rdf-syntax-ns#"
   xmlns:svg="http://www.w3.org/2000/svg"
   xmlns="http://www.w3.org/2000/svg"
   xmlns:sodipodi="http://sodipodi.sourceforge.net/DTD/sodipodi-0.dtd"
   xmlns:inkscape="http://www.inkscape.org/namespaces/inkscape"
   id="svg2"
   version="1.1"
   inkscape:version="0.91 r13725"
   xml:space="preserve"
   width="452.22528"
   height="350"
   viewBox="0 0 452.22528 350.00001"
   sodipodi:docname="j64_logo2.svg"><metadata
     id="metadata8"><rdf:RDF><cc:Work
         rdf:about=""><dc:format>image/svg+xml</dc:format><dc:type
           rdf:resource="http://purl.org/dc/dcmitype/StillImage" /><dc:title></dc:title></cc:Work></rdf:RDF></metadata><defs
     id="defs6"><clipPath
       clipPathUnits="userSpaceOnUse"
       id="clipPath24"><path
         d="m 189.42772,772.0058 142.31935,0 0,-119.63373 -142.31935,0 0,119.63373 z"
         id="path26"
         inkscape:connector-curvature="0" /></clipPath><clipPath
       clipPathUnits="userSpaceOnUse"
       id="clipPath40"><path
         d="m 178.21094,794.08057 167.3623,0 0,-49.19434 -167.3623,0 0,49.19434 z"
         id="path42"
         inkscape:connector-curvature="0" /></clipPath><clipPath
       clipPathUnits="userSpaceOnUse"
       id="clipPath56"><path
         d="m 162.47754,774.7085 166.19238,0 0,-49.30713 -166.19238,0 0,49.30713 z"
         id="path58"
         inkscape:connector-curvature="0" /></clipPath><clipPath
       clipPathUnits="userSpaceOnUse"
       id="clipPath290"><path
         d="m 187.69627,569.40381 142.31643,0 0,-119.63431 -142.31643,0 0,119.63431 z"
         id="path292"
         inkscape:connector-curvature="0" /></clipPath><clipPath
       clipPathUnits="userSpaceOnUse"
       id="clipPath306"><path
         d="m 176.47852,591.47705 167.36328,0 0,-49.19385 -167.36328,0 0,49.19385 z"
         id="path308"
         inkscape:connector-curvature="0" /></clipPath><clipPath
       clipPathUnits="userSpaceOnUse"
       id="clipPath322"><path
         d="m 160.74608,572.10547 166.19044,0 0,-49.30615 -166.19044,0 0,49.30615 z"
         id="path324"
         inkscape:connector-curvature="0" /></clipPath><clipPath
       clipPathUnits="userSpaceOnUse"
       id="clipPath344"><path
         d="m 93.61914,131.97266 61.00098,0 0,-51.27832 -61.00098,0 0,51.27832 z"
         id="path346"
         inkscape:connector-curvature="0" /></clipPath><clipPath
       clipPathUnits="userSpaceOnUse"
       id="clipPath360"><path
         d="m 88.81152,141.43457 71.73633,0 0,-21.08594 -71.73633,0 0,21.08594 z"
         id="path362"
         inkscape:connector-curvature="0" /></clipPath><clipPath
       clipPathUnits="userSpaceOnUse"
       id="clipPath376"><path
         d="m 82.06738,133.13184 71.23534,0 0,-21.13379 -71.23534,0 0,21.13379 z"
         id="path378"
         inkscape:connector-curvature="0" /></clipPath><clipPath
       clipPathUnits="userSpaceOnUse"
       id="clipPath398"><path
         d="m 263.61523,131.97266 61,0 0,-51.27832 -61,0 0,51.27832 z"
         id="path400"
         inkscape:connector-curvature="0" /></clipPath><clipPath
       clipPathUnits="userSpaceOnUse"
       id="clipPath414"><path
         d="m 258.80664,141.43457 71.7363,0 0,-21.08594 -71.7363,0 0,21.08594 z"
         id="path416"
         inkscape:connector-curvature="0" /></clipPath><clipPath
       clipPathUnits="userSpaceOnUse"
       id="clipPath430"><path
         d="m 252.06348,133.13184 71.2334,0 0,-21.13379 -71.2334,0 0,21.13379 z"
         id="path432"
         inkscape:connector-curvature="0" /></clipPath><clipPath
       clipPathUnits="userSpaceOnUse"
       id="clipPath452"><path
         d="m 422.56348,131.97266 61.00094,0 0,-51.27832 -61.00094,0 0,51.27832 z"
         id="path454"
         inkscape:connector-curvature="0" /></clipPath><clipPath
       clipPathUnits="userSpaceOnUse"
       id="clipPath468"><path
         d="m 417.75583,141.43457 71.73636,0 0,-21.08594 -71.73636,0 0,21.08594 z"
         id="path470"
         inkscape:connector-curvature="0" /></clipPath><clipPath
       clipPathUnits="userSpaceOnUse"
       id="clipPath484"><path
         d="m 411.01172,133.13184 71.23434,0 0,-21.13379 -71.23434,0 0,21.13379 z"
         id="path486"
         inkscape:connector-curvature="0" /></clipPath><clipPath
       clipPathUnits="userSpaceOnUse"
       id="clipPath506"><path
         d="m 223.92967,346.18555 142.31639,0 0,-119.63379 -142.31639,0 0,119.63379 z"
         id="path508"
         inkscape:connector-curvature="0" /></clipPath><clipPath
       clipPathUnits="userSpaceOnUse"
       id="clipPath522"><path
         d="m 212.71191,368.25879 167.36329,0 0,-49.19336 -167.36329,0 0,49.19336 z"
         id="path524"
         inkscape:connector-curvature="0" /></clipPath><clipPath
       clipPathUnits="userSpaceOnUse"
       id="clipPath538"><path
         d="m 196.97948,348.88672 166.19044,0 0,-49.30469 -166.19044,0 0,49.30469 z"
         id="path540"
         inkscape:connector-curvature="0" /></clipPath></defs><sodipodi:namedview
     pagecolor="#ffffff"
     bordercolor="#666666"
     borderopacity="1"
     objecttolerance="10"
     gridtolerance="10"
     guidetolerance="10"
     inkscape:pageopacity="0"
     inkscape:pageshadow="2"
     inkscape:window-width="1920"
     inkscape:window-height="1012"
     id="namedview4"
     showgrid="false"
     fit-margin-top="0"
     fit-margin-left="0"
     fit-margin-right="0"
     fit-margin-bottom="0"
     inkscape:zoom="0.89702968"
     inkscape:cx="241.13155"
     inkscape:cy="279.568"
     inkscape:window-x="0"
     inkscape:window-y="29"
     inkscape:window-maximized="1"
     inkscape:current-layer="g12" /><g
     id="g10"
     inkscape:groupmode="layer"
     inkscape:label="LOGOS JEUNES 6,4"
     transform="matrix(1.25,0,0,-1.25,-246.22435,633.18969)"><g
       id="g12"
       transform="scale(1,-1)"><path
         d="m 383.40755,-291.81459 c -8.2143,0 -13.47245,0.72167 -15.79183,2.1708 -2.30393,1.44525 -3.45977,4.73522 -3.45977,9.84865 0,7.43475 1.02269,12.06385 3.08543,13.90083 2.0801,1.81767 7.27265,2.7246 15.62973,2.7246 7.98662,0 12.99392,-0.81238 14.97754,-2.42359 2.00679,-1.64981 3.00824,-5.72124 3.00824,-12.27416 0,-6.17278 -0.99181,-10.0532 -2.92527,-11.6104 -1.96046,-1.55717 -6.79025,-2.33673 -14.52407,-2.33673 z m 33.74287,-24.02928 c 0,0 -17.26024,0 -17.26024,0 0,0 0.079,-2.05888 0.079,-2.05888 0,-4.26634 -0.96865,-7.04881 -2.89053,-8.35902 -1.93153,-1.32564 -5.99912,-1.9566 -12.21821,-1.9566 -9.03051,0 -14.67459,0.85288 -16.90906,2.57022 -2.22869,1.7154 -3.35942,6.03 -3.35942,12.93216 0,0 0,15.7841 0,15.7841 0,0 0.33768,0 0.33768,0 3.00631,-5.94315 10.50472,-8.91859 22.5126,-8.91859 11.7744,0 19.82083,1.87363 24.11997,5.61513 4.28949,3.72798 6.46029,10.72855 6.46029,20.96892 0,11.85351 -2.31938,19.84592 -6.92339,23.95595 -4.62718,4.12356 -13.57472,6.17086 -26.88315,6.17086 -16.39772,0 -26.70563,-2.43515 -30.92181,-7.2688 -4.18914,-4.86644 -6.30399,-16.70452 -6.30399,-35.53932 0,-23.24778 1.8833,-37.44191 5.66915,-42.59778 3.79167,-5.13274 14.25973,-7.71454 31.45438,-7.71454 12.51729,0 21.14452,1.72121 25.88168,5.18097 4.75453,3.42504 7.12408,9.7136 7.12408,18.82322 0,0 0.0308,2.412 0.0308,2.412 z"
         style="fill:#232671;fill-opacity:1;fill-rule:nonzero;stroke:none"
         id="path496"
         inkscape:connector-curvature="0" /><path
         d="m 437.91095,-266.43461 c 0,0 0,16.55787 0,16.55787 0,0 -15.36346,0 -15.36346,0 0,0 0,-16.55787 0,-16.55787 0,0 15.36346,0 15.36346,0 z"
         style="fill:#232671;fill-opacity:1;fill-rule:nonzero;stroke:none"
         id="path498"
         inkscape:connector-curvature="0" /><path
         d="m 487.63668,-283.0002 c 0,0 0,-45.35712 0,-45.35712 0,0 -0.54415,0 -0.54415,0 0,0 -34.75398,45.35712 -34.75398,45.35712 0,0 35.29813,0 35.29813,0 z m 17.30462,-58.51311 c 0,0 0,58.51311 0,58.51311 0,0 10.44105,0 10.44105,0 0,0 0,13.41649 0,13.41649 0,0 -10.44105,0 -10.44105,0 0,0 0,19.70697 0,19.70697 0,0 -17.30462,0 -17.30462,0 0,0 0,-19.70697 0,-19.70697 0,0 -49.53662,0 -49.53662,0 0,0 0,-19.52366 0,-19.52366 0,0 40.05263,-52.40594 40.05263,-52.40594 0,0 26.78861,0 26.78861,0 z"
         style="fill:#232671;fill-opacity:1;fill-rule:nonzero;stroke:none"
         id="path500"
         inkscape:connector-curvature="0" /><g
         id="g502"
         transform="matrix(1.9759076,0,0,-1.9759076,-192.23377,221.09359)"><g
           id="g504" /><g
           id="g510"><g
             clip-path="url(#clipPath506)"
             id="g512"><g
               transform="scale(1,-1)"
               id="g514"><path
                 d="m 359.02148,-338.96094 c 0,0 -111.51953,19.0752 -127.86718,105.18457"
                 style="fill:none;stroke:#00adef;stroke-width:14.45009995;stroke-linecap:round;stroke-linejoin:round;stroke-miterlimit:4;stroke-dasharray:none;stroke-opacity:1"
                 id="path516"
                 inkscape:connector-curvature="0" /></g></g></g></g><g
         id="g518"
         transform="matrix(1.9759076,0,0,-1.9759076,-192.23377,221.09359)"><g
           id="g520" /><g
           id="g526"><g
             clip-path="url(#clipPath522)"
             id="g528"><g
               transform="scale(1,-1)"
               id="g530"><path
                 d="m 372.85059,-361.03418 c 0,0 -67.60938,57.33398 -152.91407,24.7002"
                 style="fill:none;stroke:#ec008c;stroke-width:14.45009995;stroke-linecap:round;stroke-linejoin:round;stroke-miterlimit:4;stroke-dasharray:none;stroke-opacity:1"
                 id="path532"
                 inkscape:connector-curvature="0" /></g></g></g></g><g
         id="g534"
         transform="matrix(1.9759076,0,0,-1.9759076,-192.23377,221.09359)"><g
           id="g536" /><g
           id="g542"><g
             clip-path="url(#clipPath538)"
             id="g544"><g
               transform="scale(1,-1)"
               id="g546"><path
                 d="m 355.94531,-341.66211 c 0,0 -103.54199,37.99414 -151.74121,34.64648"
                 style="fill:none;stroke:#abdc57;stroke-width:14.45009995;stroke-linecap:round;stroke-linejoin:round;stroke-miterlimit:4;stroke-dasharray:none;stroke-opacity:1"
                 id="path548"
                 inkscape:connector-curvature="0" /></g></g></g></g></g></g></svg>