<?xml version="1.0" encoding="UTF-8" standalone="no"?>
<!-- Created with Inkscape (http://www.inkscape.org/) -->

<svg
   xmlns:dc="http://purl.org/dc/elements/1.1/"
   xmlns:cc="http://creativecommons.org/ns#"
   xmlns:rdf="http://www.w3.org/1999/02/22-rdf-syntax-ns#"
   xmlns:svg="http://www.w3.org/2000/svg"
   xmlns="http://www.w3.org/2000/svg"
   xmlns:sodipodi="http://sodipodi.sourceforge.net/DTD/sodipodi-0.dtd"
   xmlns:inkscape="http://www.inkscape.org/namespaces/inkscape"
   width="573.31116"
   height="350"
   viewBox="0 0 573.31118 349.99999"
   id="svg2"
   version="1.1"
   inkscape:version="0.91 r13725"
   sodipodi:docname="j64_logo1.svg">
  <defs
     id="defs4">
    <clipPath
       id="clipPath3358"
       clipPathUnits="userSpaceOnUse">
      <path
         inkscape:connector-curvature="0"
         id="path3360"
         d="m 189.42772,772.0058 142.31935,0 0,-119.63373 -142.31935,0 0,119.63373 z" />
    </clipPath>
    <clipPath
       id="clipPath3374"
       clipPathUnits="userSpaceOnUse">
      <path
         inkscape:connector-curvature="0"
         id="path3376"
         d="m 178.21094,794.08057 167.3623,0 0,-49.19434 -167.3623,0 0,49.19434 z" />
    </clipPath>
    <clipPath
       id="clipPath3390"
       clipPathUnits="userSpaceOnUse">
      <path
         inkscape:connector-curvature="0"
         id="path3392"
         d="m 162.47754,774.7085 166.19238,0 0,-49.30713 -166.19238,0 0,49.30713 z" />
    </clipPath>
  </defs>
  <sodipodi:namedview
     id="base"
     pagecolor="#ffffff"
     bordercolor="#666666"
     borderopacity="1.0"
     inkscape:pageopacity="0.0"
     inkscape:pageshadow="2"
     inkscape:zoom="1"
     inkscape:cx="320.43207"
     inkscape:cy="173.88693"
     inkscape:document-units="px"
     inkscape:current-layer="g3346"
     showgrid="false"
     inkscape:snap-page="false"
     fit-margin-top="0"
     fit-margin-left="0"
     fit-margin-right="0"
     fit-margin-bottom="0"
     units="px"
     inkscape:window-width="1920"
     inkscape:window-height="1012"
     inkscape:window-x="0"
     inkscape:window-y="29"
     inkscape:window-maximized="1" />
  <metadata
     id="metadata7">
    <rdf:RDF>
      <cc:Work
         rdf:about="">
        <dc:format>image/svg+xml</dc:format>
        <dc:type
           rdf:resource="http://purl.org/dc/dcmitype/StillImage" />
        <dc:title></dc:title>
      </cc:Work>
    </rdf:RDF>
  </metadata>
  <g
     inkscape:label="Layer 1"
     inkscape:groupmode="layer"
     id="layer1"
     transform="translate(-5.9110787,9.5412433)">
    <g
       transform="matrix(1.25,0,0,-1.25,-32.185853,1055.1932)"
       inkscape:label="LOGOS JEUNES 6,4"
       id="g3344">
      <g
         transform="scale(1,-1)"
         id="g3346">
        <path
           inkscape:connector-curvature="0"
           id="path3348"
           style="fill:#232671;fill-opacity:1;fill-rule:nonzero;stroke:none"
           d="m 431.99941,-708.8165 c -3.55622,0 -5.8312,0.31165 -6.83458,0.93973 -0.99758,0.62613 -1.4954,2.0492 -1.4954,4.26243 0,3.21852 0.44186,5.22336 1.33332,6.01545 0.89919,0.78824 3.14713,1.18091 6.76511,1.18091 3.4578,0 5.6247,-0.35216 6.48337,-1.04969 0.87024,-0.71203 1.30247,-2.47471 1.30247,-5.31116 0,-2.67247 -0.43223,-4.35314 -1.26774,-5.02656 -0.84708,-0.67343 -2.93875,-1.01111 -6.28655,-1.01111 z m 14.60496,-10.40041 c 0,0 -7.47132,0 -7.47132,0 0,0 0.0348,-0.89146 0.0348,-0.89146 0,-1.8466 -0.41873,-3.05163 -1.2523,-3.61988 -0.83551,-0.57212 -2.59529,-0.84612 -5.28898,-0.84612 -3.90546,0 -6.35024,0.3695 -7.31503,1.11239 -0.96672,0.74483 -1.45682,2.60977 -1.45682,5.59964 0,0 0,6.82973 0,6.82973 0,0 0.14662,0 0.14662,0 1.30437,-2.57116 4.54993,-3.85914 9.74435,-3.85914 5.09987,0 8.58083,0.81041 10.44287,2.43127 1.85432,1.6131 2.79402,4.64255 2.79402,9.0748 0,5.13171 -1.00338,8.59047 -2.99663,10.36858 -2.00097,1.78678 -5.87556,2.67342 -11.63341,2.67342 -7.10084,0 -11.56202,-1.05452 -13.38741,-3.14811 -1.8138,-2.10612 -2.72843,-7.23013 -2.72843,-15.38258 0,-10.06276 0.81621,-16.20749 2.45635,-18.43712 1.63821,-2.22288 6.16886,-3.34106 13.61317,-3.34106 5.41632,0 9.15199,0.74482 11.20121,2.24314 2.0627,1.48192 3.08344,4.20454 3.08344,8.14763 0,0 0.0139,1.04487 0.0139,1.04487 z" />
        <path
           inkscape:connector-curvature="0"
           id="path3350"
           style="fill:#232671;fill-opacity:1;fill-rule:nonzero;stroke:none"
           d="m 455.59427,-697.83141 c 0,0 0,7.16744 0,7.16744 0,0 -6.65511,0 -6.65511,0 0,0 0,-7.16744 0,-7.16744 0,0 6.65511,0 6.65511,0 z" />
        <path
           inkscape:connector-curvature="0"
           id="path3352"
           style="fill:#232671;fill-opacity:1;fill-rule:nonzero;stroke:none"
           d="m 477.11677,-705.00074 c 0,0 0,-19.63249 0,-19.63249 0,0 -0.2354,0 -0.2354,0 0,0 -15.04299,19.63249 -15.04299,19.63249 0,0 15.27839,0 15.27839,0 z m 7.48676,-25.32669 c 0,0 0,25.32669 0,25.32669 0,0 4.52294,0 4.52294,0 0,0 0,5.80609 0,5.80609 0,0 -4.52294,0 -4.52294,0 0,0 0,8.53068 0,8.53068 0,0 -7.48676,0 -7.48676,0 0,0 0,-8.53068 0,-8.53068 0,0 -21.4434,0 -21.4434,0 0,0 0,-8.45057 0,-8.45057 0,0 17.33728,-22.68221 17.33728,-22.68221 0,0 11.59288,0 11.59288,0 z" />
        <g
           transform="matrix(1.9758871,0,0,-1.9758871,-290.55973,717.226)"
           id="g3354">
          <g
             id="g3356" />
          <g
             id="g3362">
            <g
               id="g3364"
               clip-path="url(#clipPath3358)">
              <g
                 id="g3366"
                 transform="scale(1,-1)">
                <path
                   inkscape:connector-curvature="0"
                   id="path3368"
                   style="fill:none;stroke:#00adef;stroke-width:14.45009995;stroke-linecap:round;stroke-linejoin:round;stroke-miterlimit:4;stroke-dasharray:none;stroke-opacity:1"
                   d="m 324.52246,-764.78076 c 0,0 -111.52051,19.07373 -127.87012,105.18359" />
              </g>
            </g>
          </g>
        </g>
        <g
           transform="matrix(1.9758871,0,0,-1.9758871,-290.55973,717.226)"
           id="g3370">
          <g
             id="g3372" />
          <g
             id="g3378">
            <g
               id="g3380"
               clip-path="url(#clipPath3374)">
              <g
                 id="g3382"
                 transform="scale(1,-1)">
                <path
                   inkscape:connector-curvature="0"
                   id="path3384"
                   style="fill:none;stroke:#ec008c;stroke-width:14.45009995;stroke-linecap:round;stroke-linejoin:round;stroke-miterlimit:4;stroke-dasharray:none;stroke-opacity:1"
                   d="m 338.34863,-786.85547 c 0,0 -67.6084,57.33447 -152.91308,24.70068" />
              </g>
            </g>
          </g>
        </g>
        <g
           transform="matrix(1.9758871,0,0,-1.9758871,-290.55973,717.226)"
           id="g3386">
          <g
             id="g3388" />
          <g
             id="g3394">
            <g
               id="g3396"
               clip-path="url(#clipPath3390)">
              <g
                 id="g3398"
                 transform="scale(1,-1)">
                <path
                   inkscape:connector-curvature="0"
                   id="path3400"
                   style="fill:none;stroke:#abdc57;stroke-width:14.45009995;stroke-linecap:round;stroke-linejoin:round;stroke-miterlimit:4;stroke-dasharray:none;stroke-opacity:1"
                   d="m 321.44531,-767.4834 c 0,0 -103.54297,37.99512 -151.74316,34.64795" />
              </g>
            </g>
          </g>
        </g>
        <path
           inkscape:connector-curvature="0"
           id="path3884"
           style="fill:#232671;fill-opacity:1;fill-rule:nonzero;stroke:none"
           d="m 219.13423,-681.06144 c 0,0 0,41.39908 0,41.39908 0,7.67972 -1.27352,12.78537 -3.82444,15.29382 -2.54703,2.51714 -7.73374,3.77039 -15.55431,3.77039 -8.31262,0 -13.72121,-1.21177 -16.19107,-3.64208 -2.47565,-2.41678 -3.70865,-7.72506 -3.70865,-15.9084 0,0 0.15433,-4.42934 0.15433,-4.42934 0,0 10.84228,0 10.84228,0 0.17744,2.22771 0.26435,3.89775 0.26435,5.00437 0,1.05354 0.0463,2.32996 0.13317,3.81477 0.16973,3.63724 3.06417,5.44429 8.6503,5.44429 3.33622,0 5.48578,-0.64833 6.42934,-1.95176 0.95708,-1.30247 1.42982,-4.23447 1.42982,-8.80177 0,0 0,-39.99337 0,-39.99337 0,0 11.37486,0 11.37486,0 z" />
        <path
           inkscape:connector-curvature="0"
           id="path3886"
           style="fill:#232671;fill-opacity:1;fill-rule:nonzero;stroke:none"
           d="m 233.21048,-671.44733 c 0,0 0,15.39706 0,15.39706 0,0 28.01362,0 28.01362,0 0,0 0,8.3734 0,8.3734 0,0 -28.01362,0 -28.01362,0 0,0 0,16.9523 0,16.9523 0,0 29.87374,0 29.87374,0 0,0 0,9.61219 0,9.61219 0,0 -41.24473,0 -41.24473,0 0,0 0,-59.94906 0,-59.94906 0,0 40.93213,0 40.93213,0 0,0 0,9.61411 0,9.61411 0,0 -29.56114,0 -29.56114,0 z" />
        <path
           inkscape:connector-curvature="0"
           id="path3888"
           style="fill:#232671;fill-opacity:1;fill-rule:nonzero;stroke:none"
           d="m 303.34099,-681.06144 c 0,0 11.37098,0 11.37098,0 0,0 0,39.88339 0,39.88339 0,8.34254 -1.59576,13.85341 -4.81428,16.54807 -3.19924,2.68789 -9.75979,4.03183 -19.65855,4.03183 -10.4583,0 -17.31795,-1.26386 -20.56736,-3.81574 -3.25134,-2.54415 -4.88181,-7.91125 -4.88181,-16.10713 0,0 0,-40.54042 0,-40.54042 0,0 11.37098,0 11.37098,0 0,0 0,40.54042 0,40.54042 0,4.43224 0.79499,7.23783 2.37917,8.4255 1.58225,1.19149 5.31213,1.78098 11.17418,1.78098 6.01065,0 9.77718,-0.60201 11.32469,-1.80029 1.53981,-1.20019 2.302,-4.15342 2.302,-8.84132 0,0 0,-40.10529 0,-40.10529 z" />
        <path
           inkscape:connector-curvature="0"
           id="path3890"
           style="fill:#232671;fill-opacity:1;fill-rule:nonzero;stroke:none"
           d="m 374.07542,-681.06144 c 0,0 0,59.94906 0,59.94906 0,0 -19.27455,0 -19.27455,0 0,0 -17.11148,-32.87904 -17.11148,-32.87904 -0.84709,-1.63433 -2.18044,-4.50555 -3.98457,-8.6088 0,0 -1.93924,-4.30585 -1.93924,-4.30585 0,0 -1.88135,-4.30874 -1.88135,-4.30874 0,0 -0.43992,0 -0.43992,0 0,0 0.16972,3.95947 0.16972,3.95947 0,0 0.13318,3.91416 0.13318,3.91416 0,0 0.0888,7.85436 0.0888,7.85436 0,0 0,34.37444 0,34.37444 0,0 -11.37099,0 -11.37099,0 0,0 0,-59.94906 0,-59.94906 0,0 19.27454,0 19.27454,0 0,0 15.57361,30.40433 15.57361,30.40433 1.37773,2.69177 2.97156,5.95276 4.79115,9.79456 0,0 2.28077,4.86928 2.28077,4.86928 0,0 2.27495,4.91463 2.27495,4.91463 0,0 0.39558,0 0.39558,0 0,0 -0.12923,-3.86204 -0.12923,-3.86204 0,0 -0.13318,-3.8611 -0.13318,-3.8611 0,0 -0.0868,-7.72505 -0.0868,-7.72505 0,0 0,-34.53461 0,-34.53461 0,0 11.36909,0 11.36909,0 z" />
        <path
           inkscape:connector-curvature="0"
           id="path3892"
           style="fill:#232671;fill-opacity:1;fill-rule:nonzero;stroke:none"
           d="m 388.13432,-671.44733 c 0,0 0,15.39706 0,15.39706 0,0 28.00204,0 28.00204,0 0,0 0,8.3734 0,8.3734 0,0 -28.00204,0 -28.00204,0 0,0 0,16.9523 0,16.9523 0,0 29.86021,0 29.86021,0 0,0 0,9.61219 0,9.61219 0,0 -41.23506,0 -41.23506,0 0,0 0,-59.94906 0,-59.94906 0,0 40.93019,0 40.93019,0 0,0 0,9.61411 0,9.61411 0,0 -29.55534,0 -29.55534,0 z" />
        <path
           inkscape:connector-curvature="0"
           id="path3894"
           style="fill:#232671;fill-opacity:1;fill-rule:nonzero;stroke:none"
           d="m 464.18669,-663.5978 c 0,0 -11.10472,0 -11.10472,0 -0.0599,-0.55959 -0.0927,-0.95996 -0.0927,-1.23107 -0.26241,-3.36423 -1.00337,-5.48772 -2.23637,-6.35893 -1.22913,-0.86445 -4.1293,-1.29667 -8.70045,-1.29667 -5.38546,0 -8.90695,0.49879 -10.56253,1.49446 -1.64784,0.99662 -2.47371,3.09215 -2.47371,6.27884 0,3.77907 0.66184,6.04921 2.01641,6.82009 1.34299,0.75543 5.79066,1.33623 13.33531,1.75012 8.92428,0.49976 14.68986,1.77137 17.30638,3.82443 2.62809,2.05209 3.92476,6.31068 3.92476,12.78249 0,7.97299 -1.52823,13.11725 -4.60782,15.44723 -3.06225,2.32705 -9.837,3.48866 -20.31654,3.48866 -9.41247,0 -15.67008,-1.14231 -18.7497,-3.42982 -3.08732,-2.2904 -4.63099,-6.92332 -4.63099,-13.90549 0,0 -0.0444,-2.1978 -0.0444,-2.1978 0,0 11.06613,0 11.06613,0 0,0 0.0385,1.28125 0.0385,1.28125 0,4.21901 0.73131,6.80078 2.19587,7.74434 1.45876,0.93973 5.44139,1.41922 11.96144,1.41922 5.07864,0 8.32034,-0.54607 9.72314,-1.63243 1.39702,-1.08732 2.09745,-3.59094 2.09745,-7.50991 0,-2.89919 -0.53063,-4.82394 -1.60348,-5.77908 -1.06705,-0.95129 -3.35747,-1.52823 -6.89824,-1.73759 0,0 -6.2827,-0.39073 -6.2827,-0.39073 -9.47616,-0.55379 -15.52925,-1.87265 -18.16118,-3.95372 -2.63386,-2.07524 -3.9537,-6.55282 -3.9537,-13.40477 0,-6.99278 1.58996,-11.66235 4.76606,-13.99426 3.17993,-2.32803 9.5263,-3.48866 19.0372,-3.48866 9.01691,0 15.08929,1.06512 18.21906,3.19537 3.14137,2.1428 4.69466,6.31068 4.69466,12.50751 0,0 0.0368,2.27692 0.0368,2.27692 z" />
      </g>
    </g>
  </g>
</svg>
