<?xml version="1.0" encoding="UTF-8" standalone="no"?>
<!-- Created with Inkscape (http://www.inkscape.org/) -->

<svg
   xmlns:dc="http://purl.org/dc/elements/1.1/"
   xmlns:cc="http://creativecommons.org/ns#"
   xmlns:rdf="http://www.w3.org/1999/02/22-rdf-syntax-ns#"
   xmlns:svg="http://www.w3.org/2000/svg"
   xmlns="http://www.w3.org/2000/svg"
   xmlns:sodipodi="http://sodipodi.sourceforge.net/DTD/sodipodi-0.dtd"
   xmlns:inkscape="http://www.inkscape.org/namespaces/inkscape"
   width="620.15381"
   height="378.59689"
   viewBox="0 0 620.15383 378.59688"
   id="svg2"
   version="1.1"
   inkscape:version="0.91 r13725"
   sodipodi:docname="j64_logo1.svg">
  <defs
     id="defs4">
    <clipPath
       id="clipPath3358"
       clipPathUnits="userSpaceOnUse">
      <path
         inkscape:connector-curvature="0"
         id="path3360"
         d="m 189.42772,772.0058 142.31935,0 0,-119.63373 -142.31935,0 0,119.63373 z" />
    </clipPath>
    <clipPath
       id="clipPath3374"
       clipPathUnits="userSpaceOnUse">
      <path
         inkscape:connector-curvature="0"
         id="path3376"
         d="m 178.21094,794.08057 167.3623,0 0,-49.19434 -167.3623,0 0,49.19434 z" />
    </clipPath>
    <clipPath
       id="clipPath3390"
       clipPathUnits="userSpaceOnUse">
      <path
         inkscape:connector-curvature="0"
         id="path3392"
         d="m 162.47754,774.7085 166.19238,0 0,-49.30713 -166.19238,0 0,49.30713 z" />
    </clipPath>
    <clipPath
       id="clipPath3624"
       clipPathUnits="userSpaceOnUse">
      <path
         inkscape:connector-curvature="0"
         id="path3626"
         d="m 187.69627,569.40381 142.31643,0 0,-119.63431 -142.31643,0 0,119.63431 z" />
    </clipPath>
    <clipPath
       id="clipPath3640"
       clipPathUnits="userSpaceOnUse">
      <path
         inkscape:connector-curvature="0"
         id="path3642"
         d="m 176.47852,591.47705 167.36328,0 0,-49.19385 -167.36328,0 0,49.19385 z" />
    </clipPath>
    <clipPath
       id="clipPath3656"
       clipPathUnits="userSpaceOnUse">
      <path
         inkscape:connector-curvature="0"
         id="path3658"
         d="m 160.74608,572.10547 166.19044,0 0,-49.30615 -166.19044,0 0,49.30615 z" />
    </clipPath>
    <clipPath
       id="clipPath3678"
       clipPathUnits="userSpaceOnUse">
      <path
         inkscape:connector-curvature="0"
         id="path3680"
         d="m 93.61914,131.97266 61.00098,0 0,-51.27832 -61.00098,0 0,51.27832 z" />
    </clipPath>
    <clipPath
       id="clipPath3694"
       clipPathUnits="userSpaceOnUse">
      <path
         inkscape:connector-curvature="0"
         id="path3696"
         d="m 88.81152,141.43457 71.73633,0 0,-21.08594 -71.73633,0 0,21.08594 z" />
    </clipPath>
    <clipPath
       id="clipPath3710"
       clipPathUnits="userSpaceOnUse">
      <path
         inkscape:connector-curvature="0"
         id="path3712"
         d="m 82.06738,133.13184 71.23534,0 0,-21.13379 -71.23534,0 0,21.13379 z" />
    </clipPath>
    <clipPath
       id="clipPath3732"
       clipPathUnits="userSpaceOnUse">
      <path
         inkscape:connector-curvature="0"
         id="path3734"
         d="m 263.61523,131.97266 61,0 0,-51.27832 -61,0 0,51.27832 z" />
    </clipPath>
    <clipPath
       id="clipPath3748"
       clipPathUnits="userSpaceOnUse">
      <path
         inkscape:connector-curvature="0"
         id="path3750"
         d="m 258.80664,141.43457 71.7363,0 0,-21.08594 -71.7363,0 0,21.08594 z" />
    </clipPath>
    <clipPath
       id="clipPath3764"
       clipPathUnits="userSpaceOnUse">
      <path
         inkscape:connector-curvature="0"
         id="path3766"
         d="m 252.06348,133.13184 71.2334,0 0,-21.13379 -71.2334,0 0,21.13379 z" />
    </clipPath>
    <clipPath
       id="clipPath3786"
       clipPathUnits="userSpaceOnUse">
      <path
         inkscape:connector-curvature="0"
         id="path3788"
         d="m 422.56348,131.97266 61.00094,0 0,-51.27832 -61.00094,0 0,51.27832 z" />
    </clipPath>
    <clipPath
       id="clipPath3802"
       clipPathUnits="userSpaceOnUse">
      <path
         inkscape:connector-curvature="0"
         id="path3804"
         d="m 417.75583,141.43457 71.73636,0 0,-21.08594 -71.73636,0 0,21.08594 z" />
    </clipPath>
    <clipPath
       id="clipPath3818"
       clipPathUnits="userSpaceOnUse">
      <path
         inkscape:connector-curvature="0"
         id="path3820"
         d="m 411.01172,133.13184 71.23434,0 0,-21.13379 -71.23434,0 0,21.13379 z" />
    </clipPath>
    <clipPath
       id="clipPath3840"
       clipPathUnits="userSpaceOnUse">
      <path
         inkscape:connector-curvature="0"
         id="path3842"
         d="m 223.92967,346.18555 142.31639,0 0,-119.63379 -142.31639,0 0,119.63379 z" />
    </clipPath>
    <clipPath
       id="clipPath3856"
       clipPathUnits="userSpaceOnUse">
      <path
         inkscape:connector-curvature="0"
         id="path3858"
         d="m 212.71191,368.25879 167.36329,0 0,-49.19336 -167.36329,0 0,49.19336 z" />
    </clipPath>
    <clipPath
       id="clipPath3872"
       clipPathUnits="userSpaceOnUse">
      <path
         inkscape:connector-curvature="0"
         id="path3874"
         d="m 196.97948,348.88672 166.19044,0 0,-49.30469 -166.19044,0 0,49.30469 z" />
    </clipPath>
  </defs>
  <sodipodi:namedview
     id="base"
     pagecolor="#ffffff"
     bordercolor="#666666"
     borderopacity="1.0"
     inkscape:pageopacity="0.0"
     inkscape:pageshadow="2"
     inkscape:zoom="1"
     inkscape:cx="348.72332"
     inkscape:cy="164.88693"
     inkscape:document-units="px"
     inkscape:current-layer="g3346"
     showgrid="false"
     inkscape:snap-page="false"
     fit-margin-top="0"
     fit-margin-left="0"
     fit-margin-right="0"
     fit-margin-bottom="0"
     units="px"
     inkscape:window-width="1920"
     inkscape:window-height="1012"
     inkscape:window-x="0"
     inkscape:window-y="29"
     inkscape:window-maximized="1" />
  <metadata
     id="metadata7">
    <rdf:RDF>
      <cc:Work
         rdf:about="">
        <dc:format>image/svg+xml</dc:format>
        <dc:type
           rdf:resource="http://purl.org/dc/dcmitype/StillImage" />
        <dc:title></dc:title>
      </cc:Work>
    </rdf:RDF>
  </metadata>
  <g
     inkscape:label="Layer 1"
     inkscape:groupmode="layer"
     id="layer1"
     transform="translate(-5.9110712,38.138164)">
    <g
       transform="matrix(1.25,0,0,-1.25,-32.185853,1055.1932)"
       inkscape:label="LOGOS JEUNES 6,4"
       id="g3344">
      <g
         transform="scale(1,-1)"
         id="g3346">
        <path
           inkscape:connector-curvature="0"
           id="path3348"
           style="fill:#232671;fill-opacity:1;fill-rule:nonzero;stroke:none"
           d="m 464.80594,-720.01251 c -3.84678,0 -6.30764,0.3371 -7.393,1.0165 -1.07909,0.67729 -1.61759,2.21664 -1.61759,4.6107 0,3.4815 0.47797,5.65014 1.44227,6.50695 0.97265,0.85264 3.40427,1.27739 7.31785,1.27739 3.74032,0 6.08428,-0.38093 7.0131,-1.13545 0.94135,-0.77021 1.40889,-2.6769 1.40889,-5.74512 0,-2.89082 -0.46754,-4.70881 -1.37131,-5.43725 -0.9163,-0.72845 -3.17887,-1.09372 -6.80021,-1.09372 z m 15.79827,-11.25018 c 0,0 -8.08177,0 -8.08177,0 0,0 0.0376,-0.9643 0.0376,-0.9643 0,-1.99748 -0.45294,-3.30096 -1.35462,-3.91565 -0.90377,-0.61886 -2.80734,-0.91525 -5.72111,-0.91525 -4.22456,0 -6.8691,0.3997 -7.91271,1.20328 -1.04571,0.80568 -1.57585,2.823 -1.57585,6.05716 0,0 0,7.38776 0,7.38776 0,0 0.15859,0 0.15859,0 1.41095,-2.78124 4.92169,-4.17446 10.54053,-4.17446 5.51655,0 9.28192,0.87663 11.2961,2.62992 2.00584,1.74491 3.02231,5.02187 3.02231,9.81626 0,5.551 -1.08536,9.29237 -3.24147,11.21575 -2.16446,1.93277 -6.35563,2.89185 -12.58393,2.89185 -7.68102,0 -12.5067,-1.14067 -14.48123,-3.40532 -1.962,-2.2782 -2.95135,-7.82087 -2.95135,-16.63942 0,-10.88494 0.88289,-17.53173 2.65704,-19.94353 1.77206,-2.4045 6.67289,-3.61405 14.72544,-3.61405 5.85887,0 9.89976,0.80568 12.11641,2.42642 2.23124,1.603 3.33538,4.54808 3.33538,8.81334 0,0 0.015,1.13024 0.015,1.13024 z" />
        <path
           inkscape:connector-curvature="0"
           id="path3350"
           style="fill:#232671;fill-opacity:1;fill-rule:nonzero;stroke:none"
           d="m 490.32863,-708.12988 c 0,0 0,7.75305 0,7.75305 0,0 -7.19887,0 -7.19887,0 0,0 0,-7.75305 0,-7.75305 0,0 7.19887,0 7.19887,0 z" />
        <path
           inkscape:connector-curvature="0"
           id="path3352"
           style="fill:#232671;fill-opacity:1;fill-rule:nonzero;stroke:none"
           d="m 513.60964,-715.88498 c 0,0 0,-21.23658 0,-21.23658 0,0 -0.25464,0 -0.25464,0 0,0 -16.27208,21.23658 -16.27208,21.23658 0,0 16.52672,0 16.52672,0 z m 8.09846,-27.39602 c 0,0 0,27.39602 0,27.39602 0,0 4.8925,0 4.8925,0 0,0 0,6.28047 0,6.28047 0,0 -4.8925,0 -4.8925,0 0,0 0,9.22768 0,9.22768 0,0 -8.09846,0 -8.09846,0 0,0 0,-9.22768 0,-9.22768 0,0 -23.19544,0 -23.19544,0 0,0 0,-9.14103 0,-9.14103 0,0 18.75382,-24.53546 18.75382,-24.53546 0,0 12.54008,0 12.54008,0 z" />
        <g
           transform="matrix(2.1373279,0,0,-2.1373279,-316.79024,822.54546)"
           id="g3354">
          <g
             id="g3356" />
          <g
             id="g3362">
            <g
               id="g3364"
               clip-path="url(#clipPath3358)">
              <g
                 id="g3366"
                 transform="scale(1,-1)">
                <path
                   inkscape:connector-curvature="0"
                   id="path3368"
                   style="fill:none;stroke:#00adef;stroke-width:14.45009995;stroke-linecap:round;stroke-linejoin:round;stroke-miterlimit:4;stroke-dasharray:none;stroke-opacity:1"
                   d="m 324.52246,-764.78076 c 0,0 -111.52051,19.07373 -127.87012,105.18359" />
              </g>
            </g>
          </g>
        </g>
        <g
           transform="matrix(2.1373279,0,0,-2.1373279,-316.79024,822.54546)"
           id="g3370">
          <g
             id="g3372" />
          <g
             id="g3378">
            <g
               id="g3380"
               clip-path="url(#clipPath3374)">
              <g
                 id="g3382"
                 transform="scale(1,-1)">
                <path
                   inkscape:connector-curvature="0"
                   id="path3384"
                   style="fill:none;stroke:#ec008c;stroke-width:14.45009995;stroke-linecap:round;stroke-linejoin:round;stroke-miterlimit:4;stroke-dasharray:none;stroke-opacity:1"
                   d="m 338.34863,-786.85547 c 0,0 -67.6084,57.33447 -152.91308,24.70068" />
              </g>
            </g>
          </g>
        </g>
        <g
           transform="matrix(2.1373279,0,0,-2.1373279,-316.79024,822.54546)"
           id="g3386">
          <g
             id="g3388" />
          <g
             id="g3394">
            <g
               id="g3396"
               clip-path="url(#clipPath3390)">
              <g
                 id="g3398"
                 transform="scale(1,-1)">
                <path
                   inkscape:connector-curvature="0"
                   id="path3400"
                   style="fill:none;stroke:#abdc57;stroke-width:14.45009995;stroke-linecap:round;stroke-linejoin:round;stroke-miterlimit:4;stroke-dasharray:none;stroke-opacity:1"
                   d="m 321.44531,-767.4834 c 0,0 -103.54297,37.99512 -151.74316,34.64795" />
              </g>
            </g>
          </g>
        </g>
        <path
           inkscape:connector-curvature="0"
           id="path3884"
           style="fill:#232671;fill-opacity:1;fill-rule:nonzero;stroke:none"
           d="m 234.54851,-689.98972 c 0,0 0,44.78162 0,44.78162 0,8.30719 -1.37757,13.83 -4.13691,16.54341 -2.75514,2.7228 -8.36563,4.07845 -16.82519,4.07845 -8.9918,0 -14.84231,-1.31079 -17.51397,-3.93966 -2.67792,-2.61425 -4.01166,-8.35624 -4.01166,-17.2082 0,0 0.16693,-4.79125 0.16693,-4.79125 0,0 11.72816,0 11.72816,0 0.19193,2.40973 0.28595,4.21622 0.28595,5.41326 0,1.13962 0.05,2.52033 0.14405,4.12645 0.1836,3.93444 3.31453,5.88913 9.35708,5.88913 3.60881,0 5.93399,-0.7013 6.95465,-2.11123 1.03528,-1.40889 1.54665,-4.58045 1.54665,-9.52092 0,0 0,-43.26106 0,-43.26106 0,0 12.30424,0 12.30424,0 z" />
        <path
           inkscape:connector-curvature="0"
           id="path3886"
           style="fill:#232671;fill-opacity:1;fill-rule:nonzero;stroke:none"
           d="m 249.77487,-679.59008 c 0,0 0,16.65509 0,16.65509 0,0 30.30248,0 30.30248,0 0,0 0,9.05754 0,9.05754 0,0 -30.30248,0 -30.30248,0 0,0 0,18.3374 0,18.3374 0,0 32.31459,0 32.31459,0 0,0 0,10.39757 0,10.39757 0,0 -44.61465,0 -44.61465,0 0,0 0,-64.84724 0,-64.84724 0,0 44.2765,0 44.2765,0 0,0 0,10.39964 0,10.39964 0,0 -31.97644,0 -31.97644,0 z" />
        <path
           inkscape:connector-curvature="0"
           id="path3888"
           style="fill:#232671;fill-opacity:1;fill-rule:nonzero;stroke:none"
           d="m 325.63542,-689.98972 c 0,0 12.30006,0 12.30006,0 0,0 0,43.14209 0,43.14209 0,9.02417 -1.72615,14.9853 -5.20764,17.90013 -3.46063,2.90751 -10.55722,4.36126 -21.26475,4.36126 -11.31281,0 -18.73293,-1.36713 -22.24783,-4.12751 -3.51699,-2.75202 -5.28069,-8.55764 -5.28069,-17.42317 0,0 0,-43.8528 0,-43.8528 0,0 12.30006,0 12.30006,0 0,0 0,43.8528 0,43.8528 0,4.79437 0.85994,7.8292 2.57356,9.11391 1.71153,1.28885 5.74616,1.9265 12.08717,1.9265 6.50175,0 10.57603,-0.6512 12.24998,-1.94739 1.66562,-1.29825 2.49008,-4.49277 2.49008,-9.5637 0,0 0,-43.38212 0,-43.38212 z" />
        <path
           inkscape:connector-curvature="0"
           id="path3890"
           style="fill:#232671;fill-opacity:1;fill-rule:nonzero;stroke:none"
           d="m 402.14925,-689.98972 c 0,0 0,64.84724 0,64.84724 0,0 -20.84939,0 -20.84939,0 0,0 -18.50958,-35.56544 -18.50958,-35.56544 -0.9163,-1.76787 -2.35859,-4.87368 -4.31014,-9.31219 0,0 -2.09768,-4.65766 -2.09768,-4.65766 0,0 -2.03506,-4.66079 -2.03506,-4.66079 0,0 -0.47587,0 -0.47587,0 0,0 0.18359,4.28299 0.18359,4.28299 0,0 0.14406,4.23396 0.14406,4.23396 0,0 0.096,8.4961 0.096,8.4961 0,0 0,37.18303 0,37.18303 0,0 -12.30006,0 -12.30006,0 0,0 0,-64.84724 0,-64.84724 0,0 20.84938,0 20.84938,0 0,0 16.84605,32.88854 16.84605,32.88854 1.4903,2.9117 3.21435,6.43913 5.18262,10.59482 0,0 2.46711,5.26713 2.46711,5.26713 0,0 2.46084,5.31619 2.46084,5.31619 0,0 0.42789,0 0.42789,0 0,0 -0.13978,-4.1776 -0.13978,-4.1776 0,0 -0.14406,-4.17657 -0.14406,-4.17657 0,0 -0.0938,-8.35623 -0.0938,-8.35623 0,0 0,-37.35628 0,-37.35628 0,0 12.298,0 12.298,0 z" />
        <path
           inkscape:connector-curvature="0"
           id="path3892"
           style="fill:#232671;fill-opacity:1;fill-rule:nonzero;stroke:none"
           d="m 417.35683,-679.59008 c 0,0 0,16.65509 0,16.65509 0,0 30.28996,0 30.28996,0 0,0 0,9.05754 0,9.05754 0,0 -30.28996,0 -30.28996,0 0,0 0,18.3374 0,18.3374 0,0 32.29996,0 32.29996,0 0,0 0,10.39757 0,10.39757 0,0 -44.60419,0 -44.60419,0 0,0 0,-64.84724 0,-64.84724 0,0 44.2744,0 44.2744,0 0,0 0,10.39964 0,10.39964 0,0 -31.97017,0 -31.97017,0 z" />
        <path
           inkscape:connector-curvature="0"
           id="path3894"
           style="fill:#232671;fill-opacity:1;fill-rule:nonzero;stroke:none"
           d="m 499.6231,-671.0992 c 0,0 -12.01204,0 -12.01204,0 -0.0648,-0.60531 -0.10024,-1.0384 -0.10024,-1.33166 -0.28386,-3.6391 -1.08536,-5.93609 -2.4191,-6.87848 -1.32956,-0.93508 -4.46669,-1.40262 -9.41133,-1.40262 -5.82548,0 -9.63469,0.53955 -11.42554,1.61657 -1.78249,1.07804 -2.67583,3.34479 -2.67583,6.79185 0,4.08785 0.71592,6.54347 2.18117,7.37733 1.45272,0.81716 6.26378,1.44541 14.42487,1.89311 9.65345,0.5406 15.89011,1.9161 18.7204,4.13691 2.84282,2.21976 4.24544,6.8263 4.24544,13.82689 0,8.62443 -1.65309,14.18901 -4.98431,16.70935 -3.31245,2.51719 -10.64073,3.77371 -21.9765,3.77371 -10.18152,0 -16.95042,-1.23564 -20.28166,-3.71006 -3.33957,-2.47753 -5.00936,-7.48899 -5.00936,-15.04164 0,0 -0.0481,-2.37737 -0.0481,-2.37737 0,0 11.9703,0 11.9703,0 0,0 0.0417,1.38593 0.0417,1.38593 0,4.56373 0.79107,7.35644 2.37528,8.3771 1.57795,1.0165 5.88599,1.53518 12.93876,1.53518 5.4936,0 9.00016,-0.59069 10.51758,-1.76582 1.51116,-1.17615 2.26882,-3.88433 2.26882,-8.12351 0,-3.13606 -0.57398,-5.21807 -1.73449,-6.25126 -1.15424,-1.02901 -3.63179,-1.65309 -7.46186,-1.87956 0,0 -6.79604,-0.42266 -6.79604,-0.42266 -10.25041,-0.59903 -16.79807,-2.02565 -19.64505,-4.27675 -2.84906,-2.24481 -4.27673,-7.08823 -4.27673,-14.50002 0,-7.56413 1.71986,-12.61523 5.15547,-15.13766 3.43975,-2.51825 10.30465,-3.77371 20.59264,-3.77371 9.75365,0 16.32217,1.15215 19.70766,3.45646 3.39803,2.31787 5.07824,6.82629 5.07824,13.52944 0,0 0.0398,2.46295 0.0398,2.46295 z" />
      </g>
    </g>
  </g>
</svg>
