<?xml version="1.0" encoding="iso-8859-1"?><!-- Generator: Adobe Illustrator 16.0.0, SVG Export Plug-In . SVG Version: 6.00 Build 0) --><!DOCTYPE svg PUBLIC "-//W3C//DTD SVG 1.1//EN" "http://www.w3.org/Graphics/SVG/1.1/DTD/svg11.dtd"><svg version="1.1" id="Layer_1" xmlns="http://www.w3.org/2000/svg" xmlns:xlink="http://www.w3.org/1999/xlink" x="0px" y="0px" width="192.756px" height="192.756px" viewBox="0 0 192.756 192.756" style="enable-background:new 0 0 192.756 192.756;" xml:space="preserve"><g><polygon style="fill-rule:evenodd;clip-rule:evenodd;fill:#FFFFFF;" points="0,0 192.756,0 192.756,192.756 0,192.756 0,0	"/><polygon style="fill-rule:evenodd;clip-rule:evenodd;fill:#49AA6A;" points="189.922,141.443 189.922,36.461 3.172,36.461	3.172,141.443 189.922,141.443	"/><path style="fill-rule:evenodd;clip-rule:evenodd;fill:#1879BF;" d="M64.221,141.443c30.656-43.857,32.293-84.643,34.42-104.982	H3.172v104.982H64.221L64.221,141.443z"/><path style="fill-rule:evenodd;clip-rule:evenodd;fill:#FFFFFF;" d="M110.967,76.607c-0.014,0.01,2.463,5.916,2.463,5.916	c9.652-4.543,22.904-14.198,31.518-24.988c0,0-4.432-9.098-4.543-8.945C131.508,60.773,116.674,72.869,110.967,76.607	L110.967,76.607z"/><path style="fill-rule:evenodd;clip-rule:evenodd;fill:#FFFFFF;" d="M114.518,85.078l2.082,4.969c0,0,22.906-4.591,36.818-15.57	c0,0-4.119-8.599-4.258-8.471C134.205,79.609,114.518,85.078,114.518,85.078L114.518,85.078z"/><path style="fill-rule:evenodd;clip-rule:evenodd;fill:#FFFFFF;" d="M117.688,92.603l2.557,6.153c0,0,27.4-0.189,42.025-6.579	c0,0-4.947-10.222-5.111-10.127C140.215,91.866,117.688,92.603,117.688,92.603L117.688,92.603z"/><path style="fill-rule:evenodd;clip-rule:evenodd;fill:#FFFFFF;" d="M121.379,101.406l2.178,5.395c0,0,34.027,5.301,46.994,1.893	c0,0-4.879-10.074-5.064-10.033C142.25,103.744,121.379,101.406,121.379,101.406L121.379,101.406z"/><path style="fill-rule:evenodd;clip-rule:evenodd;fill:#FFFFFF;" d="M125.166,110.586l2.791,6.627c0,0,39.971,10.783,51.916,10.223	c0,0-4.922-10.42-5.109-10.412C150.58,117.848,125.166,110.586,125.166,110.586L125.166,110.586z"/><path style="fill-rule:evenodd;clip-rule:evenodd;fill:#FFFFFF;" d="M57.584,127.072c0,0,20.066-26.314,26.691-78.388	c-0.008,0.061,13.062,0,13.062,0l32.75,78.321h-13.82L93.93,74.998c0,0-10.695,38.54-20.444,52.075H57.584L57.584,127.072z"/><path style="fill-rule:evenodd;clip-rule:evenodd;fill:#FFFFFF;" d="M106.512,109.029c-12.432-5.617-27.923-17.227-27.923-17.227	c2.446-0.489,15.57-5.732,17.511-7.193L106.512,109.029L106.512,109.029z"/><path style="fill:#49AA6A;" d="M105.945,110.285c-12.578-5.682-28.137-17.344-28.182-17.377l-2.483-1.852l3.039-0.608	c1.231-0.246,5.435-1.811,9.406-3.443c3.479-1.429,6.729-2.883,7.544-3.497l1.661,2.201c-1.005,0.756-4.492,2.336-8.159,3.842	c-2.531,1.04-5.174,2.058-7.153,2.753c4.683,3.362,15.978,11.184,25.46,15.467L105.945,110.285L105.945,110.285z"/><path style="fill-rule:evenodd;clip-rule:evenodd;fill:#FFFFFF;" d="M78.588,91.802c2.446-0.489,15.57-5.732,17.511-7.193	c-0.132,0.1,10.182,24.317,10.413,24.42C94.08,103.412,78.588,91.802,78.588,91.802L78.588,91.802z"/><path style="fill-rule:evenodd;clip-rule:evenodd;" d="M8.843,167.902c-0.947,2.768-1.857,5.025-2.549,7.539	c-0.583-0.037-1.129-0.109-1.712-0.109c-0.583,0-1.165,0.072-1.748,0.109l10.415-25.236c0.474,0.072,0.91,0.109,1.384,0.109	s0.911-0.037,1.384-0.109l10.16,25.309c-1.056-0.072-2.076-0.182-3.132-0.182c-1.056,0-2.075,0.109-3.132,0.182	c-0.837-2.695-1.602-5.17-2.585-7.611H8.843L8.843,167.902z M16.491,165.682l-3.241-8.484l-3.423,8.484H16.491L16.491,165.682z"/><path style="fill-rule:evenodd;clip-rule:evenodd;" d="M39.634,175.986c-8.048,0-13.438-4.697-13.438-13	c0-8.193,6.409-13.109,14.348-13.109c8.084,0,13.474,5.207,13.474,12.965c0,5.936-3.642,10.67-9.25,12.49	c2.986,1.893,6.045,3.678,9.432,5.535c-1.785,0.363-3.459,1.02-5.098,2.002c-1.821-1.42-3.642-2.84-5.535-4.15L39.634,175.986	L39.634,175.986z M32.241,164.043c0,4.734,2.149,9.76,7.611,9.76c5.062,0,8.121-4.807,8.121-11.654	c0-4.697-2.185-10.086-7.647-10.086C34.281,152.025,32.241,157.27,32.241,164.043L32.241,164.043z"/><path style="fill-rule:evenodd;clip-rule:evenodd;" d="M57.505,150.533c0.911,0.072,1.821,0.182,2.731,0.182	s1.821-0.109,2.731-0.182v10.342c0,2.002-0.073,4.988,0.255,6.883c0.327,1.783,0.619,2.912,1.93,4.188	c1.166,1.092,2.549,1.566,4.151,1.566c3.387,0,5.208-1.238,6.482-4.406c0.655-1.604,0.655-5.754,0.655-7.539v-11.033	c0.474,0.072,0.983,0.109,1.457,0.109c0.474,0,0.983-0.037,1.457-0.109v12.963c-0.109,4.152-0.073,7.939-3.86,10.561	c-1.966,1.42-4.479,1.93-6.882,1.93c-4.406,0-9.176-1.383-10.524-6.117c-0.401-1.42-0.583-3.021-0.583-4.479V150.533	L57.505,150.533z"/><path style="fill-rule:evenodd;clip-rule:evenodd;" d="M83.757,150.533c0.911,0.072,1.821,0.182,2.731,0.182	c0.91,0,1.821-0.109,2.731-0.182v24.98c-0.91-0.072-1.821-0.182-2.731-0.182c-0.911,0-1.821,0.109-2.731,0.182V150.533	L83.757,150.533z"/><path style="fill-rule:evenodd;clip-rule:evenodd;" d="M104.961,175.514c-0.912-0.072-1.822-0.182-2.732-0.182	s-1.82,0.109-2.73,0.182v-22.396c-2.586,0-4.88,0.256-6.773,0.512c0.073-0.512,0.182-1.021,0.182-1.566	c0-0.51-0.109-1.02-0.182-1.529h18.754c-0.072,0.51-0.182,1.02-0.182,1.529c0,0.545,0.109,1.055,0.182,1.566	c-2.148-0.256-4.297-0.512-6.518-0.512V175.514L104.961,175.514z"/><path style="fill-rule:evenodd;clip-rule:evenodd;" d="M116.049,167.902c-0.947,2.768-1.857,5.025-2.549,7.539	c-0.584-0.037-1.129-0.109-1.713-0.109c-0.582,0-1.164,0.072-1.748,0.109l10.416-25.236c0.473,0.072,0.91,0.109,1.383,0.109	c0.475,0,0.912-0.037,1.385-0.109l10.16,25.309c-1.057-0.072-2.076-0.182-3.133-0.182c-1.055,0-2.074,0.109-3.131,0.182	c-0.838-2.695-1.604-5.17-2.586-7.611H116.049L116.049,167.902z M123.695,165.682l-3.24-8.484l-3.424,8.484H123.695	L123.695,165.682z"/><path style="fill-rule:evenodd;clip-rule:evenodd;" d="M136.604,150.533c0.91,0.072,1.822,0.182,2.732,0.182s1.82-0.109,2.73-0.182	v24.98c-0.91-0.072-1.82-0.182-2.73-0.182s-1.822,0.109-2.732,0.182V150.533L136.604,150.533z"/><path style="fill-rule:evenodd;clip-rule:evenodd;" d="M147.902,150.533h3.604c5.172,5.645,10.598,11.18,15.732,17.043v-17.043	c0.475,0.072,0.982,0.109,1.457,0.109c0.473,0,0.982-0.037,1.457-0.109v24.98l-3.096-0.037c-4.225-4.697-8.158-9.176-12.271-13.51	l-3.971-4.15v17.625c-0.473-0.037-0.982-0.109-1.455-0.109c-0.475,0-0.984,0.072-1.457,0.109V150.533L147.902,150.533z"/><path style="fill-rule:evenodd;clip-rule:evenodd;" d="M189.318,150.533c-0.074,0.51-0.184,1.055-0.184,1.564	s0.109,1.057,0.184,1.566c-2.223-0.291-4.699-0.582-8.412-0.51v7.83h3.787c1.639,0,3.131-0.146,4.479-0.328	c-0.072,0.51-0.182,1.057-0.182,1.566s0.109,1.057,0.182,1.564c-1.348-0.182-2.84-0.326-4.479-0.326h-3.787v9.25	c3.713-0.037,6.189-0.219,8.412-0.512c-0.074,0.512-0.184,1.057-0.184,1.566s0.109,1.057,0.184,1.566h-13.875v-24.799H189.318	L189.318,150.533z"/><path style="fill-rule:evenodd;clip-rule:evenodd;" d="M3.839,10.316h4.072c0.899,0,2.295-0.047,3.098,0.479	c1.09,0.717,1.664,1.792,1.664,3.418c0,2.343-1.205,3.824-2.982,4.303c1.051,2.295,2.237,4.494,3.384,6.717l0.746,1.482	c-0.574-0.048-1.147-0.12-1.74-0.12c-0.573,0-1.147,0.072-1.721,0.12l-2.275-5.021c-0.287-0.646-0.822-1.745-1.243-2.653H6.708	v7.673c-0.478-0.048-0.956-0.12-1.434-0.12s-0.956,0.072-1.434,0.12V10.316L3.839,10.316z M6.708,18.014	c2.007,0.239,3.002-0.956,3.002-3.418c0-0.334-0.019-0.693-0.096-1.195c-0.306-1.984-1.74-1.793-2.906-1.793V18.014L6.708,18.014z"	/><path style="fill-rule:evenodd;clip-rule:evenodd;" d="M45.979,10.316c-0.039,0.335-0.096,0.693-0.096,1.028	c0,0.334,0.057,0.693,0.096,1.028c-1.167-0.191-2.467-0.383-4.417-0.335v5.14h1.989c0.86,0,1.644-0.096,2.352-0.215	c-0.038,0.334-0.096,0.693-0.096,1.028s0.058,0.693,0.096,1.028c-0.708-0.119-1.491-0.215-2.352-0.215h-1.989v6.072	c1.95-0.024,3.25-0.144,4.417-0.334c-0.039,0.334-0.096,0.693-0.096,1.028c0,0.334,0.057,0.693,0.096,1.028h-7.285v-16.28H45.979	L45.979,10.316z"/><path style="fill-rule:evenodd;clip-rule:evenodd;" d="M83.417,25.951c-1.721,0.598-3.422,1.076-5.105,1.076	c-4.034,0-7.629-2.534-7.629-8.152c0-5.952,3.48-8.988,7.897-8.988c1.644,0,3.174,0.43,4.608,1.458	c-0.268,0.765-0.459,1.602-0.536,2.415h-0.267c-0.88-1.602-2.256-2.438-3.767-2.438c-3.193,0-4.761,3.61-4.761,7.625	c0,4.16,1.683,6.646,4.589,6.646c0.956,0,1.644-0.335,2.103-0.669v-5.594c0.478,0.047,0.956,0.119,1.434,0.119	s0.956-0.072,1.434-0.119V25.951L83.417,25.951z"/><path style="fill-rule:evenodd;clip-rule:evenodd;" d="M109.609,10.316c0.479,0.048,0.957,0.12,1.434,0.12	c0.479,0,0.957-0.071,1.436-0.12v16.399c-0.479-0.048-0.957-0.12-1.436-0.12c-0.477,0-0.955,0.072-1.434,0.12V10.316	L109.609,10.316z"/><path style="fill-rule:evenodd;clip-rule:evenodd;" d="M145.092,27.026c-4.225,0-7.074-3.107-7.074-8.534	c0-4.757,2.771-8.606,7.533-8.606c5.449,0,7.057,4.805,7.074,8.511C152.645,23.058,149.777,27.026,145.092,27.026L145.092,27.026z M141.191,19.186c0,3.108,1.129,6.407,3.996,6.407c2.945,0,4.264-3.682,4.264-7.65c0-3.084-1.146-6.622-4.016-6.622	C142.779,11.321,141.191,13.831,141.191,19.186L141.191,19.186z"/><path style="fill-rule:evenodd;clip-rule:evenodd;" d="M177.996,10.316h1.893c2.715,3.706,5.564,7.339,8.26,11.188V10.316	c0.248,0.048,0.516,0.072,0.766,0.072c0.248,0,0.516-0.023,0.764-0.072v16.399l-1.625-0.024c-2.217-3.084-4.283-6.024-6.443-8.869	l-2.084-2.726v11.571c-0.248-0.024-0.516-0.072-0.766-0.072c-0.248,0-0.516,0.048-0.764,0.072V10.316L177.996,10.316z"/></g></svg>