<?xml version="1.0" encoding="UTF-8" standalone="no"?>
<!-- Created with Inkscape (http://www.inkscape.org/) -->

<svg
   xmlns:dc="http://purl.org/dc/elements/1.1/"
   xmlns:cc="http://creativecommons.org/ns#"
   xmlns:rdf="http://www.w3.org/1999/02/22-rdf-syntax-ns#"
   xmlns:svg="http://www.w3.org/2000/svg"
   xmlns="http://www.w3.org/2000/svg"
   xmlns:sodipodi="http://sodipodi.sourceforge.net/DTD/sodipodi-0.dtd"
   xmlns:inkscape="http://www.inkscape.org/namespaces/inkscape"
   id="svg2"
   version="1.1"
   inkscape:version="0.91 r13725"
   xml:space="preserve"
   width="757.40002"
   height="325.51251"
   viewBox="0 0 757.40002 325.51251"
   sodipodi:docname="logo_securite_sociale.svg"><metadata
     id="metadata8"><rdf:RDF><cc:Work
         rdf:about=""><dc:format>image/svg+xml</dc:format><dc:type
           rdf:resource="http://purl.org/dc/dcmitype/StillImage" /><dc:title></dc:title></cc:Work></rdf:RDF></metadata><defs
     id="defs6" /><sodipodi:namedview
     pagecolor="#ffffff"
     bordercolor="#666666"
     borderopacity="1"
     objecttolerance="10"
     gridtolerance="10"
     guidetolerance="10"
     inkscape:pageopacity="0"
     inkscape:pageshadow="2"
     inkscape:window-width="640"
     inkscape:window-height="480"
     id="namedview4"
     showgrid="false"
     inkscape:zoom="0.48323209"
     inkscape:cx="378.70001"
     inkscape:cy="162.75626"
     inkscape:window-x="0"
     inkscape:window-y="29"
     inkscape:window-maximized="0"
     inkscape:current-layer="g10" /><g
     id="g10"
     inkscape:groupmode="layer"
     inkscape:label="ink_ext_XXXXXX"
     transform="matrix(1.25,0,0,-1.25,0,325.5125)"><g
       id="g12"
       transform="scale(0.1,0.1)"><path
         d="m 152.559,1388.01 c 5.687,8.28 9.906,20.29 10.195,33.48 0.258,19.39 -9.555,30.83 -24.578,30.95 -13.559,0.21 -21.75,-7.19 -29.27,-26.86 -9.363,-23.96 -22.156,-38.4 -42.6052,-38.19 -22.9453,0.62 -39.4922,19.75 -38.918,48.21 0.168,14.81 3.7461,25.8 7.3945,32.19 l 15.6446,-5.44 c -2.9571,-4.54 -7.4492,-14.57 -7.6172,-27.7 -0.2852,-19.91 11.6523,-27.8 21.5859,-27.99 13.6875,-0.38 20.6367,8.54 28.8711,28.85 10.3203,24.49 22.2543,36.6 43.7073,36.16 22.75,-0.29 42.195,-17.22 41.64,-51.76 -0.289,-14.01 -5.199,-29.52 -10.386,-37.25 l -15.664,5.35"
         style="fill:#2a70c0;fill-opacity:1;fill-rule:nonzero;stroke:none"
         id="path14"
         inkscape:connector-curvature="0" /><path
         d="m 152.559,1388.01 c 5.687,8.28 9.906,20.29 10.195,33.48 0.258,19.39 -9.555,30.83 -24.578,30.95 -13.559,0.21 -21.75,-7.19 -29.27,-26.86 -9.363,-23.96 -22.156,-38.4 -42.6052,-38.19 -22.9453,0.62 -39.4922,19.75 -38.918,48.21 0.168,14.81 3.7461,25.8 7.3945,32.19 l 15.6446,-5.44 c -2.9571,-4.54 -7.4492,-14.57 -7.6172,-27.7 -0.2852,-19.91 11.6523,-27.8 21.5859,-27.99 13.6875,-0.38 20.6367,8.54 28.8711,28.85 10.3203,24.49 22.2543,36.6 43.7073,36.16 22.75,-0.29 42.195,-17.22 41.64,-51.76 -0.289,-14.01 -5.199,-29.52 -10.386,-37.25 l -15.664,5.35 z"
         style="fill:none;stroke:#2a70c0;stroke-width:18.19669914;stroke-linecap:butt;stroke-linejoin:miter;stroke-miterlimit:22.92560005;stroke-dasharray:none;stroke-opacity:1"
         id="path16"
         inkscape:connector-curvature="0" /><path
         d="m 123.688,1603.1 -7.926,-56.29 52.48,-7.64 8.817,63.17 15.589,-2.37 -11.48,-81.69 -145.2422,20.4 10.9844,78.62 15.6914,-2.11 -8.4063,-59.92 45.8707,-6.34 8.028,56.3 15.594,-2.13 z m -110.8755,12.09 21.418,-31.36 -2.125,-15.54 -22.49222,24.07 3.19922,22.83"
         style="fill:#2a70c0;fill-opacity:1;fill-rule:nonzero;stroke:none"
         id="path18"
         inkscape:connector-curvature="0" /><path
         d="m 123.688,1603.1 -7.926,-56.29 52.48,-7.64 8.817,63.17 15.589,-2.37 -11.48,-81.69 -145.2422,20.4 10.9844,78.62 15.6914,-2.11 -8.4063,-59.92 45.8707,-6.34 8.028,56.3 15.594,-2.13 z m -110.8755,12.09 21.418,-31.36 -2.125,-15.54 -22.49222,24.07 3.19922,22.83 z"
         style="fill:none;stroke:#2a70c0;stroke-width:18.19669914;stroke-linecap:butt;stroke-linejoin:miter;stroke-miterlimit:22.92560005;stroke-dasharray:none;stroke-opacity:1"
         id="path20"
         inkscape:connector-curvature="0" /><path
         d="m 224.824,1743.47 c 1.449,-7.65 1.121,-21.88 -3.633,-39.22 -11.269,-39.68 -44.628,-62.46 -91.296,-49.62 -44.2934,12.51 -65.7661,50.7 -53.563,94.57 4.7774,17.57 11.6524,27.79 15.6914,31.71 l 13.7536,-8.53 c -5.422,-6.09 -10.6989,-15.06 -13.7536,-26.86 -9.4531,-33.29 5.4649,-61.04 42.6486,-71.21 34.863,-9.74 62.324,3.87 71.973,37.92 3.082,11.56 3.824,23.31 2.484,31.91 l 15.695,-0.67"
         style="fill:#2a70c0;fill-opacity:1;fill-rule:nonzero;stroke:none"
         id="path22"
         inkscape:connector-curvature="0" /><path
         d="m 224.824,1743.47 c 1.449,-7.65 1.121,-21.88 -3.633,-39.22 -11.269,-39.68 -44.628,-62.46 -91.296,-49.62 -44.2934,12.51 -65.7661,50.7 -53.563,94.57 4.7774,17.57 11.6524,27.79 15.6914,31.71 l 13.7536,-8.53 c -5.422,-6.09 -10.6989,-15.06 -13.7536,-26.86 -9.4531,-33.29 5.4649,-61.04 42.6486,-71.21 34.863,-9.74 62.324,3.87 71.973,37.92 3.082,11.56 3.824,23.31 2.484,31.91 l 15.695,-0.67 z"
         style="fill:none;stroke:#2a70c0;stroke-width:18.19669914;stroke-linecap:butt;stroke-linejoin:miter;stroke-miterlimit:22.92560005;stroke-dasharray:none;stroke-opacity:1"
         id="path24"
         inkscape:connector-curvature="0" /><path
         d="m 116.453,1856.78 79.488,-35.47 c 29.954,-13.27 48.411,-5.49 56.438,12.4 8.812,19.7 1.461,38.63 -28.086,51.49 l -79.637,35.39 7.903,17.48 78.398,-34.75 c 41.051,-18.3 48.121,-47.06 35.391,-76.35 -12.227,-27.46 -36.899,-41.43 -78.618,-22.87 l -79.14,35.05 7.863,17.63"
         style="fill:#2a70c0;fill-opacity:1;fill-rule:nonzero;stroke:none"
         id="path26"
         inkscape:connector-curvature="0" /><path
         d="m 116.453,1856.78 79.488,-35.47 c 29.954,-13.27 48.411,-5.49 56.438,12.4 8.812,19.7 1.461,38.63 -28.086,51.49 l -79.637,35.39 7.903,17.48 78.398,-34.75 c 41.051,-18.3 48.121,-47.06 35.391,-76.35 -12.227,-27.46 -36.899,-41.43 -78.618,-22.87 l -79.14,35.05 7.863,17.63 z"
         style="fill:none;stroke:#2a70c0;stroke-width:18.19669914;stroke-linecap:butt;stroke-linejoin:miter;stroke-miterlimit:22.92560005;stroke-dasharray:none;stroke-opacity:1"
         id="path28"
         inkscape:connector-curvature="0" /><path
         d="m 256.586,1982.77 10.141,16.33 c 10.89,17.36 8.312,33.92 -5.993,43.06 -15.98,9.77 -30.324,2.75 -41.046,-14.02 -4.872,-8.07 -7.45,-13.8 -8.477,-17 l 45.375,-28.37 z m -66.512,19.41 c 3.434,9.03 9.645,21.52 16.551,32.41 10.77,17.26 20.922,26.36 32.855,29.57 9.387,2.83 19.969,1.09 29.731,-4.99 16.266,-10.12 20.734,-27.54 16.766,-43.2 l 0.742,-0.27 c 9.289,7.23 21.515,7.23 36.484,2.53 19.758,-6.97 33.723,-11.55 39.934,-12.13 l -10.364,-16.59 c -4.878,0.21 -17.296,4.2 -34.726,10.65 -19.418,6.94 -30.109,4.2 -40.047,-9.87 l -9.359,-15.18 53.847,-33.94 -10.05,-15.93 -122.364,76.94"
         style="fill:#2a70c0;fill-opacity:1;fill-rule:nonzero;stroke:none"
         id="path30"
         inkscape:connector-curvature="0" /><path
         d="m 256.586,1982.77 10.141,16.33 c 10.89,17.36 8.312,33.92 -5.993,43.06 -15.98,9.77 -30.324,2.75 -41.046,-14.02 -4.872,-8.07 -7.45,-13.8 -8.477,-17 l 45.375,-28.37 z m -66.512,19.41 c 3.434,9.03 9.645,21.52 16.551,32.41 10.77,17.26 20.922,26.36 32.855,29.57 9.387,2.83 19.969,1.09 29.731,-4.99 16.266,-10.12 20.734,-27.54 16.766,-43.2 l 0.742,-0.27 c 9.289,7.23 21.515,7.23 36.484,2.53 19.758,-6.97 33.723,-11.55 39.934,-12.13 l -10.364,-16.59 c -4.878,0.21 -17.296,4.2 -34.726,10.65 -19.418,6.94 -30.109,4.2 -40.047,-9.87 l -9.359,-15.18 53.847,-33.94 -10.05,-15.93 -122.364,76.94 z"
         style="fill:none;stroke:#2a70c0;stroke-width:18.19669914;stroke-linecap:butt;stroke-linejoin:miter;stroke-miterlimit:22.92560005;stroke-dasharray:none;stroke-opacity:1"
         id="path32"
         inkscape:connector-curvature="0" /><path
         d="m 290.492,2151.34 115.289,-90.96 -12.054,-15.05 -115.055,90.92 11.82,15.09"
         style="fill:#2a70c0;fill-opacity:1;fill-rule:nonzero;stroke:none"
         id="path34"
         inkscape:connector-curvature="0" /><path
         d="m 290.492,2151.34 115.289,-90.96 -12.054,-15.05 -115.055,90.92 11.82,15.09 z"
         style="fill:none;stroke:#2a70c0;stroke-width:18.19669914;stroke-linecap:butt;stroke-linejoin:miter;stroke-miterlimit:22.92560005;stroke-dasharray:none;stroke-opacity:1"
         id="path36"
         inkscape:connector-curvature="0" /><path
         d="m 363.16,2210.2 -30.902,-32.24 -11.555,11.37 75.027,78.23 11.672,-10.97 -30.937,-32.36 94.25,-90.42 -13.235,-13.61 -94.32,90"
         style="fill:#2a70c0;fill-opacity:1;fill-rule:nonzero;stroke:none"
         id="path38"
         inkscape:connector-curvature="0" /><path
         d="m 363.16,2210.2 -30.902,-32.24 -11.555,11.37 75.027,78.23 11.672,-10.97 -30.937,-32.36 94.25,-90.42 -13.235,-13.61 -94.32,90 z"
         style="fill:none;stroke:#2a70c0;stroke-width:18.19669914;stroke-linecap:butt;stroke-linejoin:miter;stroke-miterlimit:22.92560005;stroke-dasharray:none;stroke-opacity:1"
         id="path40"
         inkscape:connector-curvature="0" /><path
         d="m 466.277,2371.92 -5.039,-37.87 -12.09,-9.62 -0.664,32.56 17.793,14.93 z m 73.739,-83.68 -43.633,-36.39 33.765,-40.64 48.836,40.35 9.934,-12.17 -63.496,-52.64 -93.586,112.98 61.305,50.59 10.144,-12.24 -46.539,-38.35 29.445,-35.65 43.957,36.22 9.868,-12.06"
         style="fill:#2a70c0;fill-opacity:1;fill-rule:nonzero;stroke:none"
         id="path42"
         inkscape:connector-curvature="0" /><path
         d="m 466.277,2371.92 -5.039,-37.87 -12.09,-9.62 -0.664,32.56 17.793,14.93 z m 73.739,-83.68 -43.633,-36.39 33.765,-40.64 48.836,40.35 9.934,-12.17 -63.496,-52.64 -93.586,112.98 61.305,50.59 10.144,-12.24 -46.539,-38.35 29.445,-35.65 43.957,36.22 9.868,-12.06 z"
         style="fill:none;stroke:#2a70c0;stroke-width:18.19669914;stroke-linecap:butt;stroke-linejoin:miter;stroke-miterlimit:22.92560005;stroke-dasharray:none;stroke-opacity:1"
         id="path44"
         inkscape:connector-curvature="0" /><path
         d="m 676.609,2325.35 c 9.93,-0.66 22.946,1.37 34.176,7.64 17.094,9.32 22.418,23.33 15.348,36.74 -6.52,11.77 -17.379,15.09 -38.137,12.34 -25.332,-3.82 -44.203,0.33 -54.109,18.2 -10.817,20.03 -2.317,44.07 22.883,57.6 13.054,7.07 24.328,9.31 31.8,8.98 l 2.727,-16.05 c -5.332,0.45 -16.027,-0.72 -27.539,-6.95 -17.645,-9.58 -18.602,-23.62 -13.899,-32.53 6.454,-12.1 17.387,-13.61 38.852,-11.05 26.656,3.32 43.254,-1.29 53.402,-20.18 10.703,-19.89 5.703,-45.25 -24.91,-61.73 -12.367,-6.69 -28.078,-10.36 -37.562,-9.53 l -3.032,16.52"
         style="fill:#2a70c0;fill-opacity:1;fill-rule:nonzero;stroke:none"
         id="path46"
         inkscape:connector-curvature="0" /><path
         d="m 676.609,2325.35 c 9.93,-0.66 22.946,1.37 34.176,7.64 17.094,9.32 22.418,23.33 15.348,36.74 -6.52,11.77 -17.379,15.09 -38.137,12.34 -25.332,-3.82 -44.203,0.33 -54.109,18.2 -10.817,20.03 -2.317,44.07 22.883,57.6 13.054,7.07 24.328,9.31 31.8,8.98 l 2.727,-16.05 c -5.332,0.45 -16.027,-0.72 -27.539,-6.95 -17.645,-9.58 -18.602,-23.62 -13.899,-32.53 6.454,-12.1 17.387,-13.61 38.852,-11.05 26.656,3.32 43.254,-1.29 53.402,-20.18 10.703,-19.89 5.703,-45.25 -24.91,-61.73 -12.367,-6.69 -28.078,-10.36 -37.562,-9.53 l -3.032,16.52 z"
         style="fill:none;stroke:#2a70c0;stroke-width:18.19669914;stroke-linecap:butt;stroke-linejoin:miter;stroke-miterlimit:22.92560005;stroke-dasharray:none;stroke-opacity:1"
         id="path48"
         inkscape:connector-curvature="0" /><path
         d="m 843.41,2393.56 c 28.113,10.53 34.223,42.39 22.375,73.62 -10.242,27.2 -35.316,50.51 -64.926,39.3 -29.277,-11.21 -33.597,-44.17 -22.476,-73.98 10.941,-28.82 36.992,-49.5 64.816,-39.06 l 0.211,0.12 z m 4.656,-14.76 c -36.507,-13.8 -72.289,4.77 -87.753,46.33 -16.555,43.61 -0.575,81.96 36.054,95.94 37.735,14.4 72.856,-5.39 88.16,-46.11 17.938,-46.82 -1.445,-82.93 -36.078,-96.16 l -0.383,0"
         style="fill:#2a70c0;fill-opacity:1;fill-rule:nonzero;stroke:none"
         id="path50"
         inkscape:connector-curvature="0" /><path
         d="m 843.41,2393.56 c 28.113,10.53 34.223,42.39 22.375,73.62 -10.242,27.2 -35.316,50.51 -64.926,39.3 -29.277,-11.21 -33.597,-44.17 -22.476,-73.98 10.941,-28.82 36.992,-49.5 64.816,-39.06 l 0.211,0.12 z m 4.656,-14.76 c -36.507,-13.8 -72.289,4.77 -87.753,46.33 -16.555,43.61 -0.575,81.96 36.054,95.94 37.735,14.4 72.856,-5.39 88.16,-46.11 17.938,-46.82 -1.445,-82.93 -36.078,-96.16 l -0.383,0 z"
         style="fill:none;stroke:#2a70c0;stroke-width:18.19669914;stroke-linecap:butt;stroke-linejoin:miter;stroke-miterlimit:22.92560005;stroke-dasharray:none;stroke-opacity:1"
         id="path52"
         inkscape:connector-curvature="0" /><path
         d="m 1044.98,2440.53 c -5.61,-5.23 -18.81,-11.39 -36.32,-15.22 -40.258,-8.95 -75.984,9.94 -86.515,57.22 -9.766,45.01 13.941,81.81 58.429,91.63 17.582,3.97 29.836,2.63 35.376,1.05 l -1.34,-16.31 c -7.64,2.08 -18.172,2.37 -30.118,-0.11 -33.765,-7.34 -51.074,-33.74 -43.004,-71.43 7.899,-35.23 33.071,-53.06 67.552,-45.54 11.52,2.36 22.38,7.23 29.16,12.51 l 6.78,-13.8"
         style="fill:#2a70c0;fill-opacity:1;fill-rule:nonzero;stroke:none"
         id="path54"
         inkscape:connector-curvature="0" /><path
         d="m 1044.98,2440.53 c -5.61,-5.23 -18.81,-11.39 -36.32,-15.22 -40.258,-8.95 -75.984,9.94 -86.515,57.22 -9.766,45.01 13.941,81.81 58.429,91.63 17.582,3.97 29.836,2.63 35.376,1.05 l -1.34,-16.31 c -7.64,2.08 -18.172,2.37 -30.118,-0.11 -33.765,-7.34 -51.074,-33.74 -43.004,-71.43 7.899,-35.23 33.071,-53.06 67.552,-45.54 11.52,2.36 22.38,7.23 29.16,12.51 l 6.78,-13.8 z"
         style="fill:none;stroke:#2a70c0;stroke-width:18.19669914;stroke-linecap:butt;stroke-linejoin:miter;stroke-miterlimit:22.92560005;stroke-dasharray:none;stroke-opacity:1"
         id="path56"
         inkscape:connector-curvature="0" /><path
         d="m 1092.06,2588.49 16.52,-145.67 -19.13,-2.32 -16.36,145.87 18.97,2.12"
         style="fill:#2a70c0;fill-opacity:1;fill-rule:nonzero;stroke:none"
         id="path58"
         inkscape:connector-curvature="0" /><path
         d="m 1092.06,2588.49 16.52,-145.67 -19.13,-2.32 -16.36,145.87 18.97,2.12 z"
         style="fill:none;stroke:#2a70c0;stroke-width:18.19669914;stroke-linecap:butt;stroke-linejoin:miter;stroke-miterlimit:22.92560005;stroke-dasharray:none;stroke-opacity:1"
         id="path60"
         inkscape:connector-curvature="0" /><path
         d="m 1232.83,2509.25 -14.93,42.1 c -2.96,9.49 -5.26,18.3 -7.28,26.83 l -0.67,0 c -2.08,-8.53 -4.37,-17.89 -7.24,-26.75 l -14.23,-42.46 44.35,0.28 z m -48,-15.13 -15.19,-46.26 -19.67,-0.07 49.33,146.98 22.88,0.18 50.69,-146.59 -20.36,-0.13 -15.93,46.1 -51.75,-0.21"
         style="fill:#2a70c0;fill-opacity:1;fill-rule:nonzero;stroke:none"
         id="path62"
         inkscape:connector-curvature="0" /><path
         d="m 1232.83,2509.25 -14.93,42.1 c -2.96,9.49 -5.26,18.3 -7.28,26.83 l -0.67,0 c -2.08,-8.53 -4.37,-17.89 -7.24,-26.75 l -14.23,-42.46 44.35,0.28 z m -48,-15.13 -15.19,-46.26 -19.67,-0.07 49.33,146.98 22.88,0.18 50.69,-146.59 -20.36,-0.13 -15.93,46.1 -51.75,-0.21 z"
         style="fill:none;stroke:#2a70c0;stroke-width:18.19669914;stroke-linecap:butt;stroke-linejoin:miter;stroke-miterlimit:22.92560005;stroke-dasharray:none;stroke-opacity:1"
         id="path64"
         inkscape:connector-curvature="0" /><path
         d="m 1329.02,2590.05 19,-2.49 -16.16,-129.77 62.14,-7.73 -1.82,-15.76 -81.33,10.04 18.17,145.71"
         style="fill:#2a70c0;fill-opacity:1;fill-rule:nonzero;stroke:none"
         id="path66"
         inkscape:connector-curvature="0" /><path
         d="m 1329.02,2590.05 19,-2.49 -16.16,-129.77 62.14,-7.73 -1.82,-15.76 -81.33,10.04 18.17,145.71 z"
         style="fill:none;stroke:#2a70c0;stroke-width:18.19669914;stroke-linecap:butt;stroke-linejoin:miter;stroke-miterlimit:22.92560005;stroke-dasharray:none;stroke-opacity:1"
         id="path68"
         inkscape:connector-curvature="0" /><path
         d="m 1517.38,2475.95 -55.02,13.53 -12.77,-51.36 61.72,-15.02 -3.58,-15.84 -80.35,20.08 34.98,142.5 77.07,-18.68 -3.71,-15.64 -58.6,14.28 -11.01,-44.96 55.09,-13.44 -3.82,-15.45"
         style="fill:#2a70c0;fill-opacity:1;fill-rule:nonzero;stroke:none"
         id="path70"
         inkscape:connector-curvature="0" /><path
         d="m 1517.38,2475.95 -55.02,13.53 -12.77,-51.36 61.72,-15.02 -3.58,-15.84 -80.35,20.08 34.98,142.5 77.07,-18.68 -3.71,-15.64 -58.6,14.28 -11.01,-44.96 55.09,-13.44 -3.82,-15.45 z"
         style="fill:none;stroke:#2a70c0;stroke-width:18.19669914;stroke-linecap:butt;stroke-linejoin:miter;stroke-miterlimit:22.92560005;stroke-dasharray:none;stroke-opacity:1"
         id="path72"
         inkscape:connector-curvature="0" /><path
         d="m 3022.09,181.25 c 0,-54.422 -15.49,-83.3203 -62.66,-83.3203 -40.19,0 -62.56,26.3403 -62.56,88.8593 l 0,190.711 c 0,62.559 22.37,88.809 62.56,88.809 40.55,0 62.66,-26.25 62.66,-88.809 l 0,-196.25 z m 114.41,-11.441 0,570.07 -114.02,0 0,-193.207 c -7.09,5.937 -30.45,17.476 -63.05,17.476 -129.09,0 -175.64,-82.988 -175.64,-202.199 l 0,-159.711 c 0,-119.1599 46.55,-202.027062 175.64,-202.027062 97.41,0 177.07,45.999962 177.07,169.598062"
         style="fill:#2a70c0;fill-opacity:1;fill-rule:nonzero;stroke:none"
         id="path74"
         inkscape:connector-curvature="0" /><path
         d="m 1565.74,739.879 0,-729.5704 -112.81,0 0,570.4104 -1.96,0 -113.39,-570.4104 -60.52,0 -113.23,570.4104 -2,0 0,-570.4104 -112.79,0 0,729.5704 168.17,0 89.16,-426.117 1.94,0 89.05,426.117 168.38,0"
         style="fill:#2a70c0;fill-opacity:1;fill-rule:nonzero;stroke:none"
         id="path76"
         inkscape:connector-curvature="0" /><path
         d="m 3241.17,10.2383 113.219,0 0,543.852 -113.219,0 0,-543.852 z"
         style="fill:#2a70c0;fill-opacity:1;fill-rule:nonzero;stroke:none"
         id="path78"
         inkscape:connector-curvature="0" /><path
         d="m 3363.79,683.02 c 0,-36.52 -29.44,-66.008 -66,-66.008 -36.48,0 -66.1,29.488 -66.1,66.008 0,36.441 29.62,65.929 66.1,65.929 36.56,0 66,-29.488 66,-65.929"
         style="fill:#2a70c0;fill-opacity:1;fill-rule:nonzero;stroke:none"
         id="path80"
         inkscape:connector-curvature="0" /><path
         d="m 2575.09,147.32 c -23.62,-23.09 -44.57,-50.7302 -80.17,-50.7302 -31.79,0 -54.59,23.0002 -54.59,63.9802 0,76.629 59.12,94.52 134.76,111.301 l 0,-124.551 z m 113.47,-79.3981 0,348.4761 c 0,99.293 -59.56,147.762 -164.79,147.762 -105.94,0 -175.62,-59.601 -181.83,-169.871 l 113.33,0 c 1.83,46.531 13.05,76.852 64.5,76.852 37.45,0 55.58,-24.27 55.58,-69.692 l 0.26,-42.527 C 2407.3,335.891 2328.76,250.621 2328.76,144.762 2328.76,70.2305 2371.65,0 2457.1,0 c 59.31,0 78.32,15.0195 124.03,50.7188 0.52,-10.2188 2.86,-22.5 6.35,-40.4102 l 108.29,0 c -3.08,18.1797 -7.21,40.4102 -7.21,57.6133"
         style="fill:#2a70c0;fill-opacity:1;fill-rule:nonzero;stroke:none"
         id="path82"
         inkscape:connector-curvature="0" /><path
         d="m 1890.89,147.32 c -23.52,-23.09 -44.46,-50.7302 -80.09,-50.7302 -31.86,0 -54.64,23.0002 -54.64,63.9802 0,76.629 59.27,94.52 134.73,111.301 l 0,-124.551 z m 113.76,-79.3981 0,348.4761 c 0,99.293 -59.83,147.762 -164.79,147.762 -106.08,0 -175.9,-59.601 -181.84,-169.871 l 113.21,0 c 1.93,46.531 13.16,76.852 64.78,76.852 37.19,0 55.4,-24.27 55.4,-69.692 l 0,-42.527 C 1723.25,335.891 1644.6,250.621 1644.6,144.762 1644.6,70.2305 1687.29,0 1773.16,0 c 59.16,0 78.16,15.0195 123.82,50.7188 0.91,-10.2188 2.98,-22.5 6.56,-40.4102 l 107.95,0 c -2.84,18.1797 -6.84,40.4102 -6.84,57.6133"
         style="fill:#2a70c0;fill-opacity:1;fill-rule:nonzero;stroke:none"
         id="path84"
         inkscape:connector-curvature="0" /><path
         d="m 2270.33,95.9688 c -58.03,0.121 -61.88,31.9532 -61.88,71.8122 l 0,572.117 -113.38,0 0,-567.886 c 0,-91.8011 40.84,-168.95341 176.07,-168.95341 l 10.95,0 0,92.91021 -11.76,0"
         style="fill:#2a70c0;fill-opacity:1;fill-rule:nonzero;stroke:none"
         id="path86"
         inkscape:connector-curvature="0" /><path
         d="m 3562.33,382.18 c 0,62.519 22.25,88.929 62.67,88.929 40.45,0 62.56,-26.41 62.56,-88.929 l 0,-28.418 -125.23,0 0,28.418 z m 238.43,-121.34 0,101.09 c 0,119.281 -46.4,202.191 -175.76,202.191 -129.1,0 -175.74,-82.91 -175.74,-202.191 l 0,-159.711 C 3449.26,83.0508 3495.9,0.238281 3625,0.238281 c 117.18,0 166.3,67.652319 174.56,169.542719 0,0 0.81,9.528 0.38,14.078 l -112.38,0 -0.14,-13.961 c -2.72,-53.867 -24.79,-76.7886 -62.42,-76.7886 -40.42,0 -62.67,26.3786 -62.67,89.0196 l 0,78.711 238.43,0"
         style="fill:#2a70c0;fill-opacity:1;fill-rule:nonzero;stroke:none"
         id="path88"
         inkscape:connector-curvature="0" /><path
         d="m 2598.34,1108.32 104.67,0 -51.82,321.46 -1.93,0 -50.92,-321.46 z m -39.16,-262.55 -121.24,0 134.54,729.58 155.48,0 134.5,-729.58 -121.29,0 -23.02,166.82 -134.76,0 -24.21,-166.82"
         style="fill:#2a70c0;fill-opacity:1;fill-rule:nonzero;stroke:none"
         id="path90"
         inkscape:connector-curvature="0" /><path
         d="m 4130.95,845.77 0,543.56 108.15,0 0,-46.43 1.96,0 c 27.41,46.43 91.6,56.31 128.19,56.31 l 23.4,0 0,-118.02 c -20.25,4.9 -39.43,11.23 -72.76,11.23 -38.54,0 -75.9,-24.48 -75.9,-72.79 l 0,-373.86 -113.04,0"
         style="fill:#2a70c0;fill-opacity:1;fill-rule:nonzero;stroke:none"
         id="path92"
         inkscape:connector-curvature="0" /><path
         d="m 4031.34,1389.33 0,-351.76 c 0,-119.09 -46.28,-202.07 -175.8,-202.07 -129.22,0 -175.74,82.98 -175.74,202.07 l 0,351.76 113.05,0 0,-371.94 c 0,-62.589 22.4,-88.761 62.69,-88.761 40.62,0 62.73,26.172 62.73,88.761 l 0,371.94 113.07,0"
         style="fill:#2a70c0;fill-opacity:1;fill-rule:evenodd;stroke:none"
         id="path94"
         inkscape:connector-curvature="0" /><path
         d="m 4858.81,845.77 0,351.49 c 0,115.45 46.64,201.95 176.17,201.95 129.26,0 175.64,-86.5 175.64,-201.95 l 0,-351.49 -113.22,0 0,370.97 c 0,58.29 -23.69,85.61 -62.42,85.61 -39.28,0 -62.95,-27.32 -62.95,-85.61 l 0,-370.97 -113.22,0"
         style="fill:#2a70c0;fill-opacity:1;fill-rule:nonzero;stroke:none"
         id="path96"
         inkscape:connector-curvature="0" /><path
         d="m 4656.19,982.691 c -23.66,-23.089 -44.44,-50.89 -80.26,-50.89 -31.69,0 -54.44,23.097 -54.44,63.98 0,76.819 59.19,94.609 134.7,111.399 l 0,-124.489 z m 113.6,-79.57 0,348.789 c 0,98.99 -59.72,147.32 -164.8,147.32 -105.93,0 -175.73,-59.42 -181.82,-169.52 l 113.34,0 c 1.91,46.64 13.04,76.77 64.76,76.77 37.18,0 55.28,-24.21 55.28,-69.78 l 0,-42.27 c -168.14,-23.04 -246.42,-108.29 -246.42,-214.321 0,-74.558 42.49,-144.847 128.29,-144.847 59.05,0 78.08,15.226 123.69,50.648 0.77,-10.199 3.28,-22.332 6.57,-40.172 l 108.07,0 c -3.12,17.953 -6.96,40.172 -6.96,57.383"
         style="fill:#2a70c0;fill-opacity:1;fill-rule:nonzero;stroke:none"
         id="path98"
         inkscape:connector-curvature="0" /><path
         d="m 2270.33,931.27 c -58.03,0.171 -61.88,31.96 -61.88,71.84 l 0,572.03 -113.38,0 0,-567.88 c 0,-91.842 40.84,-168.901 176.07,-168.901 l 10.95,0 0,92.911 -11.76,0"
         style="fill:#2a70c0;fill-opacity:1;fill-rule:nonzero;stroke:none"
         id="path100"
         inkscape:connector-curvature="0" /><path
         d="m 3011.35,1262.88 c 0,28.44 21.11,43.56 51.73,43.56 38.47,0 54.39,-21.17 60.7,-67.71 l 101.08,8.72 c -10.19,70.09 -45.56,151.81 -167.06,151.81 -88.67,0 -158.33,-59.46 -158.33,-145.41 0,-148.58 222.11,-183.85 222.11,-277.838 0,-30.242 -22.21,-47.551 -53.2,-47.551 -53.88,0 -70.72,40.379 -78.09,85.869 l -104.55,-16.74 c 12.18,-103.231 78.07,-162.09 181.61,-162.09 96.5,0 166.01,49.52 166.01,146.602 0,161.688 -222.01,195.878 -222.01,280.778"
         style="fill:#2a70c0;fill-opacity:1;fill-rule:nonzero;stroke:none"
         id="path102"
         inkscape:connector-curvature="0" /><path
         d="m 3395.96,1262.88 c 0,28.44 21.14,43.56 51.56,43.56 38.28,0 54.09,-21.17 60.78,-67.71 l 100.77,8.72 c -10.41,70.09 -45.46,151.81 -166.71,151.81 -88.38,0 -158.16,-59.46 -158.16,-145.41 0,-148.58 221.52,-183.85 221.52,-277.838 0,-30.242 -22.11,-47.551 -52.78,-47.551 -53.7,0 -70.54,40.379 -78.07,85.869 l -104.66,-16.74 c 12.16,-103.231 78.3,-162.09 181.75,-162.09 95.88,0 165.66,49.52 165.66,146.602 0,161.688 -221.66,195.878 -221.66,280.778"
         style="fill:#2a70c0;fill-opacity:1;fill-rule:nonzero;stroke:none"
         id="path104"
         inkscape:connector-curvature="0" /><path
         d="m 5820.71,1217.7 c 0,62.52 22.12,88.75 62.73,88.75 40.29,0 62.4,-26.23 62.4,-88.75 l 0,-28.54 -125.13,0 0,28.54 z m 238.46,-121.51 0,101.07 c 0,119.18 -46.36,201.95 -175.73,201.95 -129.42,0 -175.8,-82.77 -175.8,-201.95 l 0,-159.67 c 0,-119.328 46.38,-202.09 175.8,-202.09 117.07,0 166.28,67.859 174.57,169.54 0,0 0.64,9.6 0.09,14.12 l -112.26,0 -0.17,-14.12 c -2.72,-53.579 -24.69,-76.579 -62.23,-76.579 -40.61,0 -62.73,26.098 -62.73,88.929 l 0,78.8 238.46,0"
         style="fill:#2a70c0;fill-opacity:1;fill-rule:nonzero;stroke:none"
         id="path106"
         inkscape:connector-curvature="0" /><path
         d="m 2323.98,1575.14 0,-103.55 32.65,0 c -10.42,-26.13 -32.55,-82.29 -32.55,-82.29 l 55.31,0 47.97,82.29 0,103.55 -103.38,0"
         style="fill:#2a70c0;fill-opacity:1;fill-rule:nonzero;stroke:none"
         id="path108"
         inkscape:connector-curvature="0" /><path
         d="m 5529.18,1025.63 0,-20.63 c -2.99,-53.59 -24.59,-76.512 -62.4,-76.512 -40.61,0 -62.59,26.071 -62.59,88.902 l 0,200.33 c 0,62.52 21.98,88.73 62.59,88.73 40.43,0 62.5,-26.21 62.5,-88.73 l 0,-20.46 113.33,0 c 0,119.13 -46.37,201.95 -175.83,201.95 -129.42,0 -175.92,-82.82 -175.92,-201.95 l 0,-159.67 c 0,-119.301 46.5,-202.141 175.92,-202.141 138.1,0 174.92,97.692 174.92,190.181 l -112.52,0"
         style="fill:#2a70c0;fill-opacity:1;fill-rule:nonzero;stroke:none"
         id="path110"
         inkscape:connector-curvature="0" /><path
         d="m 539.871,845.789 1087.41,0 0,13.3203 -1087.41,0 0,-13.3203 z"
         style="fill:#6fc72d;fill-opacity:1;fill-rule:nonzero;stroke:none"
         id="path112"
         inkscape:connector-curvature="0" /><path
         d="m 530.773,836.68 1105.6,0 0,31.5313 -1105.6,0 0,-31.5313 z"
         style="fill:#6fc72d;fill-opacity:1;fill-rule:nonzero;stroke:none"
         id="path114"
         inkscape:connector-curvature="0" /><path
         d="m 561.555,1151.74 1200.34,0 0,13.543 -1200.34,0 0,-13.543 z"
         style="fill:#6fc72d;fill-opacity:1;fill-rule:nonzero;stroke:none"
         id="path116"
         inkscape:connector-curvature="0" /><path
         d="m 552.461,1142.64 1218.52,0 0,31.7383 -1218.52,0 0,-31.7383 z"
         style="fill:#6fc72d;fill-opacity:1;fill-rule:nonzero;stroke:none"
         id="path118"
         inkscape:connector-curvature="0" /><path
         d="m 539.871,1457.76 1237.83,0 0,13.4688 -1237.83,0 0,-13.4688 z"
         style="fill:#6fc72d;fill-opacity:1;fill-rule:nonzero;stroke:none"
         id="path120"
         inkscape:connector-curvature="0" /><path
         d="m 530.773,1448.67 1256.03,0 0,31.6602 -1256.03,0 0,-31.6602 z"
         style="fill:#6fc72d;fill-opacity:1;fill-rule:nonzero;stroke:none"
         id="path122"
         inkscape:connector-curvature="0" /><path
         d="m 539.871,1763.82 1237.83,0 0,13.6289 -1237.83,0 0,-13.6289 z"
         style="fill:#6fc72d;fill-opacity:1;fill-rule:nonzero;stroke:none"
         id="path124"
         inkscape:connector-curvature="0" /><path
         d="m 530.773,1754.72 1256.03,0 0,31.8242 -1256.03,0 0,-31.8242 z"
         style="fill:#6fc72d;fill-opacity:1;fill-rule:nonzero;stroke:none"
         id="path126"
         inkscape:connector-curvature="0" /><path
         d="m 539.871,2069.88 1237.83,0 0,13.4688 -1237.83,0 0,-13.4688 z"
         style="fill:#6fc72d;fill-opacity:1;fill-rule:nonzero;stroke:none"
         id="path128"
         inkscape:connector-curvature="0" /><path
         d="m 530.773,2060.79 1256.03,0 0,31.6602 -1256.03,0 0,-31.6602 z"
         style="fill:#6fc72d;fill-opacity:1;fill-rule:nonzero;stroke:none"
         id="path130"
         inkscape:connector-curvature="0" /><path
         d="m 607.813,1718.54 c 16.765,-37.35 3.89,-90.63 -19.782,-117.35 41.891,-53.42 146.965,-31.26 203.492,-16.07 15.325,3.08 27.457,30.44 41.836,19.86 4.012,-3.15 29.106,23.79 26.215,-1.38 0,-15.4 -7.094,-31.69 -22.75,-37.47 -11.754,-4.41 -45.594,-14.52 -45.594,-14.52 -60.464,-19.08 -93.277,-27.53 -153.542,-56.59 -27.895,-14.76 -20.684,-68.23 -16.844,-87.47 3.734,-19.44 22.504,-89.34 6.094,-124.14 -13.473,-28.24 -60.2,-54.5 -60.969,-89.64 0,-15.24 25.265,-33.72 10.699,-46.18 -9.695,-7.95 -16.57,-9.39 -22.348,-4.06 0,0 -45.257,46.58 -39.644,62.68 -0.266,6.16 51.035,79.67 28.89,112.69 -12.128,-11.27 -13.558,-42.32 -37.964,-53.89 -11.914,-5.19 -28.704,8.3 -38.637,2.64 -3.891,-2.38 -3.367,-17.93 -7.211,-21.68 -3.797,-4.01 -20.031,-3.24 -23.832,3.75 -9.293,19.13 -5.66,51.65 -2.027,67.75 5.269,23.83 54.875,-2.36 38.777,31.74 -5.969,12.27 -13.567,28.58 -12.918,54.83 0.312,19.86 17.144,43.17 0.574,53.19 -18.312,9.2 -61.973,28.6 -62.66,51.35 -5.258,54.51 95.516,54.51 118.488,103.31 0,23.45 -29.586,43.53 -23.586,80.83 2.93,18.75 17.664,40.29 41.883,43.61 30.348,4.06 48.93,0.35 73.36,-17.79"
         style="fill:#2a70c0;fill-opacity:1;fill-rule:evenodd;stroke:none"
         id="path132"
         inkscape:connector-curvature="0" /><path
         d="m 1934.29,1705.28 c 3.64,25.86 -12.14,86.18 -3.95,111.04 l 45.95,-23.88 c -9.89,-16.4 -29.32,-52.48 -42,-87.16 z m 89.35,123.43 c -61.94,39.91 -115.41,109.69 -184.83,98.42 -36.7,3.1 -6.57,41.93 -16.84,57 -16.62,29.78 -18.6,41.05 -83.81,34.79 -17.87,-1.86 -32.19,-8.55 -38.91,-24.09 -6.11,-17.48 -0.38,-13.13 -4.65,-29.33 -5.45,-16.4 -24.7,-23.89 -6.26,-36.17 1.6,-5.28 1.6,-14.47 0,-31.1 -0.86,-12.07 13.85,-10.86 20.04,-14.64 -74.01,-54.25 -207.12,-44.37 -272.41,-1.83 -12.18,7.97 -54.27,5.99 -54.27,1.29 0,-11.01 27.41,-13.36 37.17,-24.84 -4.58,-1.46 -12.39,0.26 -8.97,-6.43 3.49,-6.94 53.49,-15.97 53.49,-15.97 38.21,-25.91 97.84,-38.35 144.1,-47.38 94.58,-14.11 121.18,-9 133.74,-69.47 12.52,-61.25 -2.17,-117.77 -16.12,-201.45 -11.38,-74.53 4.21,-121.07 16.12,-194.22 2.11,-13.56 9.37,-36.08 2.46,-41.62 -13.08,-11.65 -47.54,-21.61 -62.4,-34.57 -6.59,-21.45 53.38,-7.81 93.45,-9.89 19.08,-1.49 23.62,18.91 23.62,31.26 3.58,114.39 6.99,150.04 25.24,221.79 10.67,-61.82 12.13,-165.85 25.69,-228.48 -15.66,-18.43 -57.39,-34.94 -46.92,-45.09 12.04,-11.53 32.69,-9.45 43.53,-6.9 25.6,6.38 40.27,14.21 58.53,31.05 0,0 37.99,250.98 31.31,375.15 -3.73,69.18 64.12,109.07 98.32,170.81 8.55,15.93 8.28,29.79 -10.42,41.91"
         style="fill:#2a70c0;fill-opacity:1;fill-rule:evenodd;stroke:none"
         id="path134"
         inkscape:connector-curvature="0" /><path
         d="m 1193.28,2049.42 c 26.87,-4.87 89.45,-22.66 96.81,-24.04 7.5,-1.56 25.72,-18.78 31.47,-20.11 3.28,-0.74 4.06,-1.22 6.64,3.6 2.56,4.84 13.28,-2.8 24.2,0.46 7.16,2.15 13.9,21.44 12.24,23.63 -7,8.36 -43.41,18.23 -61.03,18.37 -20.61,6.78 -68.49,26.33 -104.4,37.83 -81.39,25.75 -166.34,64.92 -244.394,18.34 -32.554,13.51 -33.101,55.79 -89.578,51.24 -26.746,-2.1 -45.828,-22.66 -52.562,-41.22 -6.469,-18.57 -9.192,-41.76 2.984,-64.69 6.477,-12.51 19.512,-18.52 32.434,-23.09 6.418,-2.2 13.301,-3.53 19.867,-5.92 9.031,-3.27 10.867,-10.53 21.445,-9.19 7.903,1.23 14.254,2.38 22.375,1.85 7.5,-0.37 26.621,-3.19 29.446,6.74 0.429,0 0.714,-0.04 0.808,-0.04 0.688,-18.65 -2.722,-46.12 -12.441,-50.61 -13.035,-3.05 -18.719,4.83 -50.246,14.09 -30.965,9.11 -104.301,18.29 -105.641,-38.09 -2.394,-89.9 8.449,-119 -53.781,-195.34 -10.821,-13.25 -28.965,-14.1 -18.289,-27.84 8.379,-8.6 22.011,-2.08 28.414,3.15 15.929,-40.07 69.418,19.77 81.219,28.97 24.289,18.87 -3.25,35.53 8.242,53.75 19.769,38.31 50.125,53.85 56.476,82.55 31.371,-24.59 69.625,-43.72 108.672,-40.61 16.14,3.06 30.79,9.19 49.01,27.53 17.95,18.36 23.09,77.04 24.69,117.61 3.37,82.43 60.23,64.64 134.92,51.08"
         style="fill:#2a70c0;fill-opacity:1;fill-rule:evenodd;stroke:none"
         id="path136"
         inkscape:connector-curvature="0" /><path
         d="m 1734.38,873.781 c -32.43,7.641 -69.03,30.707 -87.09,59 -12.92,19.797 -21.85,42.199 -32.31,64.91 -35.18,77.149 -55.35,161.569 -78.3,189.749 -40.34,49.62 -118.67,119.18 -171.51,153.45 -15.76,10.32 -30.31,17.53 -43.18,23.34 12.78,62.15 9.84,128.45 9.84,128.45 0,12.68 0.26,13.06 4.66,18.39 13.71,10.69 22.75,23.73 18.58,44.29 -0.36,2.89 -11.75,27.42 -15.12,32.67 19.18,-7.55 102.75,-27.37 127.07,-25.67 41.57,2.79 140.3,71.62 155.32,81.9 11.13,6.64 17.31,8.15 22.61,9.75 5.92,1.55 20.3,10.47 23.55,19.49 1.4,4 -3.15,32.55 -12.97,34.36 -4.4,0.55 -15.5,-6.61 -19.51,-5.4 -2.2,0.77 -5.01,5.14 -7,5.14 -5.65,0 -10.96,-8.67 -13.78,-12.87 -3.36,-5.67 -4.77,-15.54 -8.55,-20.37 -6.73,-8.48 -102.76,-35.73 -134.66,-50.65 -5.44,-2.56 -11.22,-4.75 -16.81,-2.85 -25.19,7.67 -126.66,65.97 -166.82,57.55 -12.78,-2.45 -32.72,-9.71 -41.1,-0.25 -4.66,4.82 -7.26,12.77 -3.37,20.63 4.1,9.07 25.48,10.24 29.61,20.56 4.54,11.44 -2.89,34.15 -2.89,35.44 0.15,4.37 5.23,6.56 4.81,10.36 -0.54,4.16 -5.67,8.65 -11.66,16.84 -6.05,8.42 -7.86,29.7 -13.4,38.99 1.26,2.89 5.18,22.33 -17.57,35.32 -22.66,13.3 -59.85,16.19 -80.77,-2.2 -11.89,-10.67 -27.65,-6.56 -40.16,-13.08 -23.98,-12.57 -8.6,-37.66 -47.98,-73.2 -17.05,-15.39 -7.02,-45.32 -2.72,-51.94 -16.79,-31.42 12.56,-68.08 39.16,-61.72 8.81,-8.61 14.31,-12.36 23.89,-11.54 0.16,-1.17 0.43,-2.08 0.78,-3.03 -5.97,-2.15 -18.75,-8.63 -24.24,-11.61 -15.36,-7.57 -24,-17.48 -37.9,-30.83 -44.46,-43.34 -110.796,-110.61 -268.605,-189.63 -17.832,-10.84 -69.39,-6.18 -69.39,-17.31 3.414,-5.45 14.617,-10.92 14.617,-10.92 0.453,-6.44 -19.012,-9.07 -29.496,-11.36 -9.028,-5.06 8.41,-12.3 15.14,-18.65 35.196,-6.26 53.278,1.59 82.965,26.34 119.973,46.71 209.139,92.13 306.459,155.34 20.41,13.35 32.07,-1.08 48.82,-62.74 6.26,-23.99 -25.42,-43.49 -37.6,-77.37 -13.69,-37.73 -11.97,-66.21 -1.94,-88.16 -11.39,-24.48 -45.56,-57.07 -45.56,-57.07 0,0 -81.601,-67.64 -122.964,-108.42 -35.793,-35.59 -79.113,-27.29 -112.211,-43.23 -33.91,-16.28 -64.691,-42.05 -93.395,-65.62 -21.062,-17.62 -42.003,-33.08 -70.066,-44.561 -10.672,-4.418 -16.019,-5.828 -27.387,-7.258 -14.379,-2.101 -23.14,-15.23 -21.972,-27.633 1.172,-11.218 11.105,-36.32 22.117,-58.078 5.777,-11.961 18.98,-39.8 36.172,-43.34 11.777,-2.39 36.301,-7.429 41.886,3.25 7.379,14.282 -23.875,18.219 -26.125,36.61 -1.429,11.769 -2.718,31.16 1.2,42.5 6.703,19.539 34.765,32.91 51.386,41.859 51.989,28.16 204.75,64.251 250.379,78.021 66.15,28.81 118.16,52.38 161,80.59 37.74,22.86 68.61,59.31 92.55,89.61 56.3,-28.27 139.57,-63.38 194.88,-84.49 32.59,-12.44 14.73,-33.22 32.95,-79.81 12.94,-33.79 36.35,-58.202 113.24,-149.421 11.32,-14.82 -0.66,-25.597 1.81,-42.308 2.66,-18.121 11.49,-18.801 28.43,-18.27 15.49,0.43 31.42,0 47.02,0 19.77,0 44.72,0 64.49,0.149 7.48,0.109 21.86,2.531 21.86,13.109 0,11.652 -21.33,12.551 -31.17,14.902"
         style="fill:#2a70c0;fill-opacity:1;fill-rule:nonzero;stroke:none"
         id="path138"
         inkscape:connector-curvature="0" /></g></g></svg>