<?xml version="1.0" encoding="UTF-8" standalone="no"?>
<!DOCTYPE svg PUBLIC "-//W3C//DTD SVG 1.1//EN"
 "http://www.w3.org/Graphics/SVG/1.1/DTD/svg11.dtd">
<!-- Generated by graphviz version 2.38.0 (20140413.2041)
 -->
<!-- Title: G Pages: 1 -->
<svg width="352pt" height="852pt"
 viewBox="0.00 0.00 352.29 852.00" xmlns="http://www.w3.org/2000/svg" xmlns:xlink="http://www.w3.org/1999/xlink">
<g id="graph0" class="graph" transform="scale(1 1) rotate(0) translate(4 848)">
<title>G</title>
<polygon fill="white" stroke="none" points="-4,4 -4,-848 348.288,-848 348.288,4 -4,4"/>
<g id="clust1" class="cluster"><title>cluster_Global</title>
<path fill="none" stroke="gray" d="M207.288,-8C207.288,-8 324.288,-8 324.288,-8 330.288,-8 336.288,-14 336.288,-20 336.288,-20 336.288,-824 336.288,-824 336.288,-830 330.288,-836 324.288,-836 324.288,-836 207.288,-836 207.288,-836 201.288,-836 195.288,-830 195.288,-824 195.288,-824 195.288,-20 195.288,-20 195.288,-14 201.288,-8 207.288,-8"/>
<text text-anchor="middle" x="265.788" y="-823.2" font-family="Times,serif" font-size="11.00" fill="gray">Global</text>
</g>
<!-- \\LinkGenerator -->
<g id="node1" class="node"><title>\\LinkGenerator</title>
<polygon fill="none" stroke="black" points="317.788,-808 213.788,-808 213.788,-772 317.788,-772 317.788,-808"/>
<text text-anchor="middle" x="265.788" y="-787.2" font-family="Courier,monospace" font-size="11.00">LinkGenerator</text>
</g>
<!-- \\Admin -->
<g id="node2" class="node"><title>\\Admin</title>
<polygon fill="none" stroke="black" points="292.788,-592 238.788,-592 238.788,-556 292.788,-556 292.788,-592"/>
<text text-anchor="middle" x="265.788" y="-571.2" font-family="Courier,monospace" font-size="11.00">Admin</text>
</g>
<!-- \\J64_Controller -->
<g id="node16" class="node"><title>\\J64_Controller</title>
<ellipse fill="none" stroke="black" cx="65.6442" cy="-601" rx="65.7887" ry="18"/>
<text text-anchor="middle" x="65.6442" y="-597.3" font-family="Times,serif" font-size="14.00" fill="gray">\J64_Controller</text>
</g>
<!-- \\Admin&#45;&gt;\\J64_Controller -->
<g id="edge1" class="edge"><title>\\Admin&#45;&gt;\\J64_Controller</title>
<path fill="none" stroke="black" d="M238.476,-577.585C212.223,-581.163 170.779,-586.81 135.17,-591.662"/>
<polygon fill="none" stroke="black" points="134.251,-588.255 124.816,-593.073 135.197,-595.191 134.251,-588.255"/>
</g>
<!-- \\Jeune -->
<g id="node3" class="node"><title>\\Jeune</title>
<polygon fill="none" stroke="black" points="292.788,-538 238.788,-538 238.788,-502 292.788,-502 292.788,-538"/>
<text text-anchor="middle" x="265.788" y="-517.2" font-family="Courier,monospace" font-size="11.00">Jeune</text>
</g>
<!-- \\Jeune&#45;&gt;\\J64_Controller -->
<g id="edge2" class="edge"><title>\\Jeune&#45;&gt;\\J64_Controller</title>
<path fill="none" stroke="black" d="M238.65,-529.964C225.592,-534.989 209.571,-541.229 195.288,-547 167.234,-558.335 135.928,-571.466 111.223,-581.941"/>
<polygon fill="none" stroke="black" points="109.593,-578.83 101.757,-585.961 112.329,-585.273 109.593,-578.83"/>
</g>
<!-- \\Connexion -->
<g id="node4" class="node"><title>\\Connexion</title>
<polygon fill="none" stroke="black" points="304.288,-484 227.288,-484 227.288,-448 304.288,-448 304.288,-484"/>
<text text-anchor="middle" x="265.788" y="-463.2" font-family="Courier,monospace" font-size="11.00">Connexion</text>
</g>
<!-- \\Connexion&#45;&gt;\\J64_Controller -->
<g id="edge3" class="edge"><title>\\Connexion&#45;&gt;\\J64_Controller</title>
<path fill="none" stroke="black" d="M226.944,-478.125C216.367,-482.194 205.091,-487.198 195.288,-493 155.435,-516.59 115.52,-552.475 90.9577,-576.322"/>
<polygon fill="none" stroke="black" points="88.2205,-574.104 83.5418,-583.61 93.1272,-579.097 88.2205,-574.104"/>
</g>
<!-- \\Referent -->
<g id="node5" class="node"><title>\\Referent</title>
<polygon fill="none" stroke="black" points="301.288,-754 230.288,-754 230.288,-718 301.288,-718 301.288,-754"/>
<text text-anchor="middle" x="265.788" y="-733.2" font-family="Courier,monospace" font-size="11.00">Referent</text>
</g>
<!-- \\Referent&#45;&gt;\\J64_Controller -->
<g id="edge4" class="edge"><title>\\Referent&#45;&gt;\\J64_Controller</title>
<path fill="none" stroke="black" d="M230.166,-725.093C218.688,-720.821 206.093,-715.396 195.288,-709 155.435,-685.41 115.52,-649.525 90.9577,-625.678"/>
<polygon fill="none" stroke="black" points="93.1272,-622.903 83.5418,-618.39 88.2205,-627.896 93.1272,-622.903"/>
</g>
<!-- \\Twitter -->
<g id="node6" class="node"><title>\\Twitter</title>
<polygon fill="none" stroke="black" points="297.788,-430 233.788,-430 233.788,-394 297.788,-394 297.788,-430"/>
<text text-anchor="middle" x="265.788" y="-409.2" font-family="Courier,monospace" font-size="11.00">Twitter</text>
</g>
<!-- \\CI_Controller -->
<g id="node17" class="node"><title>\\CI_Controller</title>
<ellipse fill="none" stroke="black" cx="65.6442" cy="-412" rx="62.2891" ry="18"/>
<text text-anchor="middle" x="65.6442" y="-408.3" font-family="Times,serif" font-size="14.00" fill="gray">\CI_Controller</text>
</g>
<!-- \\Twitter&#45;&gt;\\CI_Controller -->
<g id="edge5" class="edge"><title>\\Twitter&#45;&gt;\\CI_Controller</title>
<path fill="none" stroke="black" d="M233.392,-412C207.987,-412 171.211,-412 138.656,-412"/>
<polygon fill="none" stroke="black" points="138.254,-408.5 128.254,-412 138.254,-415.5 138.254,-408.5"/>
</g>
<!-- \\Home -->
<g id="node7" class="node"><title>\\Home</title>
<polygon fill="none" stroke="black" points="292.788,-700 238.788,-700 238.788,-664 292.788,-664 292.788,-700"/>
<text text-anchor="middle" x="265.788" y="-679.2" font-family="Courier,monospace" font-size="11.00">Home</text>
</g>
<!-- \\Home&#45;&gt;\\J64_Controller -->
<g id="edge6" class="edge"><title>\\Home&#45;&gt;\\J64_Controller</title>
<path fill="none" stroke="black" d="M238.65,-672.036C225.592,-667.011 209.571,-660.771 195.288,-655 167.234,-643.665 135.928,-630.534 111.223,-620.059"/>
<polygon fill="none" stroke="black" points="112.329,-616.727 101.757,-616.039 109.593,-623.17 112.329,-616.727"/>
</g>
<!-- \\Consultant -->
<g id="node8" class="node"><title>\\Consultant</title>
<polygon fill="none" stroke="black" points="307.788,-646 223.788,-646 223.788,-610 307.788,-610 307.788,-646"/>
<text text-anchor="middle" x="265.788" y="-625.2" font-family="Courier,monospace" font-size="11.00">Consultant</text>
</g>
<!-- \\Consultant&#45;&gt;\\J64_Controller -->
<g id="edge7" class="edge"><title>\\Consultant&#45;&gt;\\J64_Controller</title>
<path fill="none" stroke="black" d="M223.733,-622.406C198.18,-618.924 164.677,-614.358 135.178,-610.339"/>
<polygon fill="none" stroke="black" points="135.311,-606.825 124.93,-608.942 134.366,-613.761 135.311,-606.825"/>
</g>
<!-- \\Reference_model -->
<g id="node9" class="node"><title>\\Reference_model</title>
<polygon fill="none" stroke="black" points="324.788,-322 206.788,-322 206.788,-286 324.788,-286 324.788,-322"/>
<text text-anchor="middle" x="265.788" y="-301.2" font-family="Courier,monospace" font-size="11.00">Reference_model</text>
</g>
<!-- \\CI_Model -->
<g id="node18" class="node"><title>\\CI_Model</title>
<ellipse fill="none" stroke="black" cx="65.6442" cy="-196" rx="50.0912" ry="18"/>
<text text-anchor="middle" x="65.6442" y="-192.3" font-family="Times,serif" font-size="14.00" fill="gray">\CI_Model</text>
</g>
<!-- \\Reference_model&#45;&gt;\\CI_Model -->
<g id="edge8" class="edge"><title>\\Reference_model&#45;&gt;\\CI_Model</title>
<path fill="none" stroke="black" d="M214.924,-285.966C208.234,-283.16 201.532,-280.142 195.288,-277 160.491,-259.489 123.056,-235.244 97.5915,-217.852"/>
<polygon fill="none" stroke="black" points="99.3284,-214.798 89.1076,-212.008 95.3574,-220.563 99.3284,-214.798"/>
</g>
<!-- \\Users_model -->
<g id="node10" class="node"><title>\\Users_model</title>
<polygon fill="none" stroke="black" points="311.288,-268 220.288,-268 220.288,-232 311.288,-232 311.288,-268"/>
<text text-anchor="middle" x="265.788" y="-247.2" font-family="Courier,monospace" font-size="11.00">Users_model</text>
</g>
<!-- \\Users_model&#45;&gt;\\CI_Model -->
<g id="edge9" class="edge"><title>\\Users_model&#45;&gt;\\CI_Model</title>
<path fill="none" stroke="black" d="M219.826,-237.747C188.917,-229.323 147.872,-218.137 116.049,-209.464"/>
<polygon fill="none" stroke="black" points="116.633,-205.996 106.065,-206.743 114.793,-212.75 116.633,-205.996"/>
</g>
<!-- \\Savoiretre_model -->
<g id="node11" class="node"><title>\\Savoiretre_model</title>
<polygon fill="none" stroke="black" points="328.288,-214 203.288,-214 203.288,-178 328.288,-178 328.288,-214"/>
<text text-anchor="middle" x="265.788" y="-193.2" font-family="Courier,monospace" font-size="11.00">Savoiretre_model</text>
</g>
<!-- \\Savoiretre_model&#45;&gt;\\CI_Model -->
<g id="edge10" class="edge"><title>\\Savoiretre_model&#45;&gt;\\CI_Model</title>
<path fill="none" stroke="black" d="M203.18,-196C178.628,-196 150.475,-196 126.136,-196"/>
<polygon fill="none" stroke="black" points="125.96,-192.5 115.96,-196 125.96,-199.5 125.96,-192.5"/>
</g>
<!-- \\Consultant_model -->
<g id="node12" class="node"><title>\\Consultant_model</title>
<polygon fill="none" stroke="black" points="328.288,-160 203.288,-160 203.288,-124 328.288,-124 328.288,-160"/>
<text text-anchor="middle" x="265.788" y="-139.2" font-family="Courier,monospace" font-size="11.00">Consultant_model</text>
</g>
<!-- \\Consultant_model&#45;&gt;\\CI_Model -->
<g id="edge11" class="edge"><title>\\Consultant_model&#45;&gt;\\CI_Model</title>
<path fill="none" stroke="black" d="M203.18,-158.79C175.075,-166.449 142.253,-175.395 115.833,-182.595"/>
<polygon fill="none" stroke="black" points="114.772,-179.256 106.045,-185.262 116.613,-186.01 114.772,-179.256"/>
</g>
<!-- \\Jeune_model -->
<g id="node13" class="node"><title>\\Jeune_model</title>
<polygon fill="none" stroke="black" points="311.288,-106 220.288,-106 220.288,-70 311.288,-70 311.288,-106"/>
<text text-anchor="middle" x="265.788" y="-85.2" font-family="Courier,monospace" font-size="11.00">Jeune_model</text>
</g>
<!-- \\Jeune_model&#45;&gt;\\CI_Model -->
<g id="edge12" class="edge"><title>\\Jeune_model&#45;&gt;\\CI_Model</title>
<path fill="none" stroke="black" d="M220.116,-103.895C211.74,-107.283 203.151,-111.043 195.288,-115 160.491,-132.511 123.056,-156.756 97.5915,-174.148"/>
<polygon fill="none" stroke="black" points="95.3574,-171.437 89.1076,-179.992 99.3284,-177.202 95.3574,-171.437"/>
</g>
<!-- \\Admin_model -->
<g id="node14" class="node"><title>\\Admin_model</title>
<polygon fill="none" stroke="black" points="311.288,-52 220.288,-52 220.288,-16 311.288,-16 311.288,-52"/>
<text text-anchor="middle" x="265.788" y="-31.2" font-family="Courier,monospace" font-size="11.00">Admin_model</text>
</g>
<!-- \\Admin_model&#45;&gt;\\CI_Model -->
<g id="edge13" class="edge"><title>\\Admin_model&#45;&gt;\\CI_Model</title>
<path fill="none" stroke="black" d="M219.96,-48.0638C211.426,-51.6554 202.818,-55.9586 195.288,-61 149.993,-91.3295 108.629,-140.164 85.6203,-170.04"/>
<polygon fill="none" stroke="black" points="82.6119,-168.215 79.357,-178.297 88.189,-172.445 82.6119,-168.215"/>
</g>
<!-- \\Groupement_model -->
<g id="node15" class="node"><title>\\Groupement_model</title>
<polygon fill="none" stroke="black" points="328.288,-376 203.288,-376 203.288,-340 328.288,-340 328.288,-376"/>
<text text-anchor="middle" x="265.788" y="-355.2" font-family="Courier,monospace" font-size="11.00">Groupement_model</text>
</g>
<!-- \\Groupement_model&#45;&gt;\\CI_Model -->
<g id="edge14" class="edge"><title>\\Groupement_model&#45;&gt;\\CI_Model</title>
<path fill="none" stroke="black" d="M211.202,-339.99C205.65,-337.307 200.236,-334.313 195.288,-331 149.993,-300.67 108.629,-251.836 85.6203,-221.96"/>
<polygon fill="none" stroke="black" points="88.189,-219.555 79.357,-213.703 82.6119,-223.785 88.189,-219.555"/>
</g>
</g>
</svg>
